<?xml version="1.0" encoding="UTF-8" standalone="no"?>
<svg
   xmlns:dc="http://purl.org/dc/elements/1.1/"
   xmlns:cc="http://creativecommons.org/ns#"
   xmlns:rdf="http://www.w3.org/1999/02/22-rdf-syntax-ns#"
   xmlns:svg="http://www.w3.org/2000/svg"
   xmlns="http://www.w3.org/2000/svg"
   xmlns:sodipodi="http://sodipodi.sourceforge.net/DTD/sodipodi-0.dtd"
   xmlns:inkscape="http://www.inkscape.org/namespaces/inkscape"
   width="24.428045mm"
   height="5.4388738mm"
   viewBox="0 0 24.428045 5.4388738"
   version="1.1"
   id="svg23824"
   inkscape:version="1.0.2-2 (e86c870879, 2021-01-15)"
   sodipodi:docname="Modulo_X_Turing_SmallDiagram_Fig7.svg">
  <defs
     id="defs23818">
    <clipPath
       clipPathUnits="userSpaceOnUse"
       id="clipPath21465">
      <path
         d="M 0,0 H 71.89 V 15.44 H 0 Z"
         id="path21463" />
    </clipPath>
  </defs>
  <sodipodi:namedview
     id="base"
     pagecolor="#ffffff"
     bordercolor="#666666"
     borderopacity="1.0"
     inkscape:pageopacity="0.0"
     inkscape:pageshadow="2"
     inkscape:zoom="3.959798"
     inkscape:cx="146.16324"
     inkscape:cy="-15.436081"
     inkscape:document-units="mm"
     inkscape:current-layer="layer1"
     inkscape:document-rotation="0"
     showgrid="false"
     fit-margin-top="0"
     fit-margin-left="0"
     fit-margin-right="0"
     fit-margin-bottom="0"
     inkscape:window-width="2221"
     inkscape:window-height="1228"
     inkscape:window-x="0"
     inkscape:window-y="1620"
     inkscape:window-maximized="0" />
  <metadata
     id="metadata23821">
    <rdf:RDF>
      <cc:Work
         rdf:about="">
        <dc:format>image/svg+xml</dc:format>
        <dc:type
           rdf:resource="http://purl.org/dc/dcmitype/StillImage" />
        <dc:title></dc:title>
      </cc:Work>
    </rdf:RDF>
  </metadata>
  <g
     inkscape:label="Layer 1"
     inkscape:groupmode="layer"
     id="layer1"
     transform="translate(-67.160977,-152.2508)">
    <g
       id="g21457"
       transform="matrix(0.35277777,0,0,-0.35277777,66.864699,157.68967)">
      <g
         id="g21459">
        <g
           id="g21461"
           clip-path="url(#clipPath21465)">
          <g
             id="g21467"
             transform="scale(0.1)">
            <path
               d="m 238.141,20.2617 c -49.262,-6.5586 -91.27,15.1641 -91.27,56.8242 0,57.1761 79.117,76.7971 147.524,37.3011"
               style="fill:none;stroke:#accfcc;stroke-width:9.94989;stroke-linecap:round;stroke-linejoin:round;stroke-miterlimit:10;stroke-dasharray:none;stroke-opacity:1"
               id="path21469" />
            <path
               d="m 294.395,39.7852 c -20.2,-5.6719 -40.102,-7.1172 -58.168,-5.1446 l 3.914,-29.41794 c 18.679,6.73044 37.554,18.26174 54.254,34.56254"
               style="fill:#accfcc;fill-opacity:1;fill-rule:nonzero;stroke:none"
               id="path21471" />
            <path
               d="m 294.395,39.7852 c -20.2,-5.6719 -40.102,-7.1172 -58.168,-5.1446 l 3.914,-29.41794 c 18.679,6.73044 37.554,18.26174 54.254,34.56254 z"
               style="fill:none;stroke:#4d4d4d;stroke-width:4.9936;stroke-linecap:round;stroke-linejoin:round;stroke-miterlimit:10;stroke-dasharray:none;stroke-opacity:1"
               id="path21473" />
            <path
               d="m 479.859,133.91 c 49.262,6.559 91.27,-15.164 91.27,-56.8241 0,-57.1718 -79.117,-76.792931 -147.524,-37.3007"
               style="fill:none;stroke:#accfcc;stroke-width:9.94989;stroke-linecap:round;stroke-linejoin:round;stroke-miterlimit:10;stroke-dasharray:none;stroke-opacity:1"
               id="path21475" />
            <path
               d="m 423.605,114.387 c 20.2,5.672 40.102,7.121 58.168,5.144 l -3.914,29.418 c -18.679,-6.73 -37.554,-18.261 -54.254,-34.562"
               style="fill:#accfcc;fill-opacity:1;fill-rule:nonzero;stroke:none"
               id="path21477" />
            <path
               d="m 423.605,114.387 c 20.2,5.672 40.102,7.121 58.168,5.144 l -3.914,29.418 c -18.679,-6.73 -37.554,-18.261 -54.254,-34.562 z"
               style="fill:none;stroke:#4d4d4d;stroke-width:4.9936;stroke-linecap:round;stroke-linejoin:round;stroke-miterlimit:10;stroke-dasharray:none;stroke-opacity:1"
               id="path21479" />
            <path
               d="m 433.59,77.0859 c 0,41.1951 -33.395,74.5901 -74.59,74.5901 -41.195,0 -74.59,-33.395 -74.59,-74.5901 0,-41.1953 33.395,-74.58981 74.59,-74.58981 41.195,0 74.59,33.39451 74.59,74.58981"
               style="fill:#accfcc;fill-opacity:1;fill-rule:nonzero;stroke:none"
               id="path21481" />
            <path
               d="m 433.59,77.0859 c 0,41.1951 -33.395,74.5901 -74.59,74.5901 -41.195,0 -74.59,-33.395 -74.59,-74.5901 0,-41.1953 33.395,-74.58981 74.59,-74.58981 41.195,0 74.59,33.39451 74.59,74.58981 z"
               style="fill:none;stroke:#595241;stroke-width:4.9936;stroke-linecap:round;stroke-linejoin:round;stroke-miterlimit:10;stroke-dasharray:none;stroke-opacity:1"
               id="path21483" />
            <g
               id="g21485"
               transform="scale(10)">
              <text
                 transform="matrix(1,0,0,-1,0.839844,5.76016)"
                 style="font-variant:normal;font-weight:normal;font-size:8.28887px;font-family:Inconsolatazi4;-inkscape-font-specification:Inconsolatazi4-Regular;writing-mode:lr-tb;fill:#4d4d4d;fill-opacity:1;fill-rule:nonzero;stroke:none"
                 id="text21489"><tspan
                   x="0"
                   y="0"
                   id="tspan21487">B</tspan></text>
              <text
                 transform="matrix(1,0,0,-1,4.439844,5.76016)"
                 style="font-variant:normal;font-weight:normal;font-size:8.52808px;font-family:rtxmi7;-inkscape-font-specification:rtxmi7;writing-mode:lr-tb;fill:#4d4d4d;fill-opacity:1;fill-rule:nonzero;stroke:none"
                 id="text21493"><tspan
                   x="0"
                   y="0"
                   id="tspan21491">,</tspan></text>
              <text
                 transform="matrix(1,0,0,-1,9.119924,5.76016)"
                 style="font-variant:normal;font-weight:normal;font-size:8.28887px;font-family:Inconsolatazi4;-inkscape-font-specification:Inconsolatazi4-Regular;writing-mode:lr-tb;fill:#4d4d4d;fill-opacity:1;fill-rule:nonzero;stroke:none"
                 id="text21497"><tspan
                   x="0 49.56015"
                   y="0"
                   sodipodi:role="line"
                   id="tspan21495">B1</tspan></text>
              <text
                 transform="matrix(1,0,0,-1,62.400024,5.76016)"
                 style="font-variant:normal;font-weight:normal;font-size:8.52808px;font-family:rtxmi7;-inkscape-font-specification:rtxmi7;writing-mode:lr-tb;fill:#4d4d4d;fill-opacity:1;fill-rule:nonzero;stroke:none"
                 id="text21501"><tspan
                   x="0"
                   y="0"
                   id="tspan21499">,</tspan></text>
              <text
                 transform="matrix(1,0,0,-1,66.960184,5.76016)"
                 style="font-variant:normal;font-weight:normal;font-size:8.28887px;font-family:Inconsolatazi4;-inkscape-font-specification:Inconsolatazi4-Regular;writing-mode:lr-tb;fill:#4d4d4d;fill-opacity:1;fill-rule:nonzero;stroke:none"
                 id="text21505"><tspan
                   x="0"
                   y="0"
                   id="tspan21503">1</tspan></text>
            </g>
            <g
               id="g21507"
               transform="scale(10)">
              <text
                 transform="matrix(1,0,0,-1,31.9199,6.96016)"
                 style="font-variant:normal;font-weight:normal;font-size:7.78187px;font-family:LinLibertineI7;-inkscape-font-specification:LinLibertineI7;writing-mode:lr-tb;fill:#000000;fill-opacity:1;fill-rule:nonzero;stroke:none"
                 id="text21511"><tspan
                   x="0"
                   y="0"
                   id="tspan21509">q</tspan></text>
              <text
                 transform="matrix(1,0,0,-1,36.36013,5.76016)"
                 style="font-variant:normal;font-weight:normal;font-size:5.36983px;font-family:XCharter;-inkscape-font-specification:XCharter-Roman;writing-mode:lr-tb;fill:#000000;fill-opacity:1;fill-rule:nonzero;stroke:none"
                 id="text21515"><tspan
                   x="0"
                   y="0"
                   id="tspan21513">0</tspan></text>
            </g>
          </g>
        </g>
      </g>
    </g>
  </g>
</svg>
