<?xml version="1.0" encoding="UTF-8"?>
<!DOCTYPE svg PUBLIC "-//W3C//DTD SVG 1.1//EN" "http://www.w3.org/Graphics/SVG/1.1/DTD/svg11.dtd">
<svg version="1.2" width="42.65mm" height="44.86mm" viewBox="11133 17246 4265 4486" preserveAspectRatio="xMidYMid" fill-rule="evenodd" stroke-width="28.222" stroke-linejoin="round" xmlns="http://www.w3.org/2000/svg" xmlns:ooo="http://xml.openoffice.org/svg/export" xmlns:xlink="http://www.w3.org/1999/xlink" xmlns:presentation="http://sun.com/xmlns/staroffice/presentation" xmlns:smil="http://www.w3.org/2001/SMIL20/" xmlns:anim="urn:oasis:names:tc:opendocument:xmlns:animation:1.0" xml:space="preserve">
 <defs class="EmbeddedBulletChars">
  <g id="bullet-char-template-57356" transform="scale(0.00048828125,-0.00048828125)">
   <path d="M 580,1141 L 1163,571 580,0 -4,571 580,1141 Z"/>
  </g>
  <g id="bullet-char-template-57354" transform="scale(0.00048828125,-0.00048828125)">
   <path d="M 8,1128 L 1137,1128 1137,0 8,0 8,1128 Z"/>
  </g>
  <g id="bullet-char-template-10146" transform="scale(0.00048828125,-0.00048828125)">
   <path d="M 174,0 L 602,739 174,1481 1456,739 174,0 Z M 1358,739 L 309,1346 659,739 1358,739 Z"/>
  </g>
  <g id="bullet-char-template-10132" transform="scale(0.00048828125,-0.00048828125)">
   <path d="M 2015,739 L 1276,0 717,0 1260,543 174,543 174,936 1260,936 717,1481 1274,1481 2015,739 Z"/>
  </g>
  <g id="bullet-char-template-10007" transform="scale(0.00048828125,-0.00048828125)">
   <path d="M 0,-2 C -7,14 -16,27 -25,37 L 356,567 C 262,823 215,952 215,954 215,979 228,992 255,992 264,992 276,990 289,987 310,991 331,999 354,1012 L 381,999 492,748 772,1049 836,1024 860,1049 C 881,1039 901,1025 922,1006 886,937 835,863 770,784 769,783 710,716 594,584 L 774,223 C 774,196 753,168 711,139 L 727,119 C 717,90 699,76 672,76 641,76 570,178 457,381 L 164,-76 C 142,-110 111,-127 72,-127 30,-127 9,-110 8,-76 1,-67 -2,-52 -2,-32 -2,-23 -1,-13 0,-2 Z"/>
  </g>
  <g id="bullet-char-template-10004" transform="scale(0.00048828125,-0.00048828125)">
   <path d="M 285,-33 C 182,-33 111,30 74,156 52,228 41,333 41,471 41,549 55,616 82,672 116,743 169,778 240,778 293,778 328,747 346,684 L 369,508 C 377,444 397,411 428,410 L 1163,1116 C 1174,1127 1196,1133 1229,1133 1271,1133 1292,1118 1292,1087 L 1292,965 C 1292,929 1282,901 1262,881 L 442,47 C 390,-6 338,-33 285,-33 Z"/>
  </g>
  <g id="bullet-char-template-9679" transform="scale(0.00048828125,-0.00048828125)">
   <path d="M 813,0 C 632,0 489,54 383,161 276,268 223,411 223,592 223,773 276,916 383,1023 489,1130 632,1184 813,1184 992,1184 1136,1130 1245,1023 1353,916 1407,772 1407,592 1407,412 1353,268 1245,161 1136,54 992,0 813,0 Z"/>
  </g>
  <g id="bullet-char-template-8226" transform="scale(0.00048828125,-0.00048828125)">
   <path d="M 346,457 C 273,457 209,483 155,535 101,586 74,649 74,723 74,796 101,859 155,911 209,963 273,989 346,989 419,989 480,963 531,910 582,859 608,796 608,723 608,648 583,586 532,535 482,483 420,457 346,457 Z"/>
  </g>
  <g id="bullet-char-template-8211" transform="scale(0.00048828125,-0.00048828125)">
   <path d="M -4,459 L 1135,459 1135,606 -4,606 -4,459 Z"/>
  </g>
  <g id="bullet-char-template-61548" transform="scale(0.00048828125,-0.00048828125)">
   <path d="M 173,740 C 173,903 231,1043 346,1159 462,1274 601,1332 765,1332 928,1332 1067,1274 1183,1159 1299,1043 1357,903 1357,740 1357,577 1299,437 1183,322 1067,206 928,148 765,148 601,148 462,206 346,322 231,437 173,577 173,740 Z"/>
  </g>
 </defs>
 <g class="Page">
  <g class="com.sun.star.drawing.PolyPolygonShape">
   <g id="id3">
    <rect class="BoundingBox" stroke="none" fill="none" x="11907" y="17256" width="1517" height="545"/>
    <path fill="rgb(255,255,255)" stroke="none" d="M 11907,17256 L 13423,17256 13423,17799 11907,17799 11907,17256 Z"/>
   </g>
  </g>
  <g class="com.sun.star.drawing.PolyPolygonShape">
   <g id="id4">
    <rect class="BoundingBox" stroke="none" fill="none" x="11897" y="17246" width="1539" height="567"/>
    <path fill="none" stroke="rgb(255,255,255)" stroke-width="21" stroke-linejoin="round" stroke-linecap="round" d="M 11908,17801 L 13424,17801 13424,17257 11908,17257 11908,17801 Z"/>
   </g>
  </g>
  <g class="com.sun.star.drawing.PolyPolygonShape">
   <g id="id5">
    <rect class="BoundingBox" stroke="none" fill="none" x="11145" y="18238" width="1077" height="544"/>
    <path fill="rgb(255,255,255)" stroke="none" d="M 11145,18238 L 12221,18238 12221,18781 11145,18781 11145,18238 Z"/>
   </g>
  </g>
  <g class="com.sun.star.drawing.PolyPolygonShape">
   <g id="id6">
    <rect class="BoundingBox" stroke="none" fill="none" x="11133" y="18226" width="1102" height="567"/>
    <path fill="none" stroke="rgb(255,255,255)" stroke-width="21" stroke-linejoin="round" stroke-linecap="round" d="M 11144,18781 L 12223,18781 12223,18237 11144,18237 11144,18781 Z"/>
   </g>
  </g>
  <g class="com.sun.star.drawing.PolyPolygonShape">
   <g id="id7">
    <rect class="BoundingBox" stroke="none" fill="none" x="12889" y="18238" width="1518" height="544"/>
    <path fill="rgb(255,255,255)" stroke="none" d="M 12889,18238 L 14406,18238 14406,18781 12889,18781 12889,18238 Z"/>
   </g>
  </g>
  <g class="com.sun.star.drawing.PolyPolygonShape">
   <g id="id8">
    <rect class="BoundingBox" stroke="none" fill="none" x="12877" y="18226" width="1540" height="567"/>
    <path fill="none" stroke="rgb(255,255,255)" stroke-width="21" stroke-linejoin="round" stroke-linecap="round" d="M 12888,18781 L 14405,18781 14405,18237 12888,18237 12888,18781 Z"/>
   </g>
  </g>
  <g class="com.sun.star.drawing.PolyPolygonShape">
   <g id="id9">
    <rect class="BoundingBox" stroke="none" fill="none" x="11539" y="19216" width="285" height="544"/>
    <path fill="rgb(255,255,255)" stroke="none" d="M 11539,19216 L 11823,19216 11823,19759 11539,19759 11539,19216 Z"/>
   </g>
  </g>
  <g class="com.sun.star.drawing.PolyPolygonShape">
   <g id="id10">
    <rect class="BoundingBox" stroke="none" fill="none" x="11532" y="19205" width="304" height="567"/>
    <path fill="none" stroke="rgb(255,255,255)" stroke-width="21" stroke-linejoin="round" stroke-linecap="round" d="M 11543,19760 L 11824,19760 11824,19216 11543,19216 11543,19760 Z"/>
   </g>
  </g>
  <g class="com.sun.star.drawing.PolyPolygonShape">
   <g id="id11">
    <rect class="BoundingBox" stroke="none" fill="none" x="13871" y="19216" width="1518" height="544"/>
    <path fill="rgb(255,255,255)" stroke="none" d="M 13871,19216 L 15388,19216 15388,19759 13871,19759 13871,19216 Z"/>
   </g>
  </g>
  <g class="com.sun.star.drawing.PolyPolygonShape">
   <g id="id12">
    <rect class="BoundingBox" stroke="none" fill="none" x="13858" y="19205" width="1540" height="567"/>
    <path fill="none" stroke="rgb(255,255,255)" stroke-width="21" stroke-linejoin="round" stroke-linecap="round" d="M 13869,19760 L 15386,19760 15386,19216 13869,19216 13869,19760 Z"/>
   </g>
  </g>
  <g class="com.sun.star.drawing.PolyPolygonShape">
   <g id="id13">
    <rect class="BoundingBox" stroke="none" fill="none" x="12123" y="19216" width="1081" height="544"/>
    <path fill="rgb(255,255,255)" stroke="none" d="M 12123,19216 L 13203,19216 13203,19759 12123,19759 12123,19216 Z"/>
   </g>
  </g>
  <g class="com.sun.star.drawing.PolyPolygonShape">
   <g id="id14">
    <rect class="BoundingBox" stroke="none" fill="none" x="12113" y="19205" width="1103" height="567"/>
    <path fill="none" stroke="rgb(255,255,255)" stroke-width="21" stroke-linejoin="round" stroke-linecap="round" d="M 12124,19760 L 13204,19760 13204,19216 12124,19216 12124,19760 Z"/>
   </g>
  </g>
  <g class="com.sun.star.drawing.PolyPolygonShape">
   <g id="id15">
    <rect class="BoundingBox" stroke="none" fill="none" x="12525" y="20194" width="287" height="548"/>
    <path fill="rgb(255,255,255)" stroke="none" d="M 12525,20194 L 12810,20194 12810,20741 12525,20741 12525,20194 Z"/>
   </g>
  </g>
  <g class="com.sun.star.drawing.PolyPolygonShape">
   <g id="id16">
    <rect class="BoundingBox" stroke="none" fill="none" x="12512" y="20185" width="305" height="567"/>
    <path fill="none" stroke="rgb(255,255,255)" stroke-width="21" stroke-linejoin="round" stroke-linecap="round" d="M 12523,20740 L 12805,20740 12805,20196 12523,20196 12523,20740 Z"/>
   </g>
  </g>
  <g class="com.sun.star.drawing.PolyPolygonShape">
   <g id="id17">
    <rect class="BoundingBox" stroke="none" fill="none" x="14087" y="20194" width="1077" height="548"/>
    <path fill="rgb(255,255,255)" stroke="none" d="M 14087,20194 L 15163,20194 15163,20741 14087,20741 14087,20194 Z"/>
   </g>
  </g>
  <g class="com.sun.star.drawing.PolyPolygonShape">
   <g id="id18">
    <rect class="BoundingBox" stroke="none" fill="none" x="14075" y="20185" width="1102" height="567"/>
    <path fill="none" stroke="rgb(255,255,255)" stroke-width="21" stroke-linejoin="round" stroke-linecap="round" d="M 14086,20740 L 15165,20740 15165,20196 14086,20196 14086,20740 Z"/>
   </g>
  </g>
  <g class="com.sun.star.drawing.PolyPolygonShape">
   <g id="id19">
    <rect class="BoundingBox" stroke="none" fill="none" x="14485" y="21176" width="286" height="544"/>
    <path fill="rgb(255,255,255)" stroke="none" d="M 14485,21176 L 14770,21176 14770,21719 14485,21719 14485,21176 Z"/>
   </g>
  </g>
  <g class="com.sun.star.drawing.PolyPolygonShape">
   <g id="id20">
    <rect class="BoundingBox" stroke="none" fill="none" x="14474" y="21165" width="308" height="567"/>
    <path fill="none" stroke="rgb(255,255,255)" stroke-width="21" stroke-linejoin="round" stroke-linecap="round" d="M 14485,21720 L 14770,21720 14770,21176 14485,21176 14485,21720 Z"/>
   </g>
  </g>
  <g class="com.sun.star.drawing.LineShape">
   <g id="id21">
    <rect class="BoundingBox" stroke="none" fill="none" x="11943" y="17789" width="462" height="461"/>
    <path fill="none" stroke="rgb(172,207,204)" stroke-width="21" stroke-linejoin="round" stroke-linecap="round" d="M 12393,17800 L 11954,18238"/>
   </g>
  </g>
  <g class="com.sun.star.drawing.LineShape">
   <g id="id22">
    <rect class="BoundingBox" stroke="none" fill="none" x="12924" y="17789" width="461" height="461"/>
    <path fill="none" stroke="rgb(172,207,204)" stroke-width="21" stroke-linejoin="round" stroke-linecap="round" d="M 12935,17800 L 13373,18238"/>
   </g>
  </g>
  <g class="com.sun.star.drawing.LineShape">
   <g id="id23">
    <rect class="BoundingBox" stroke="none" fill="none" x="11672" y="18769" width="23" height="459"/>
    <path fill="none" stroke="rgb(172,207,204)" stroke-width="21" stroke-linejoin="round" stroke-linecap="round" d="M 11683,18780 L 11683,19216"/>
   </g>
  </g>
  <g class="com.sun.star.drawing.LineShape">
   <g id="id24">
    <rect class="BoundingBox" stroke="none" fill="none" x="12924" y="18769" width="461" height="460"/>
    <path fill="none" stroke="rgb(172,207,204)" stroke-width="21" stroke-linejoin="round" stroke-linecap="round" d="M 13373,18780 L 12935,19217"/>
   </g>
  </g>
  <g class="com.sun.star.drawing.LineShape">
   <g id="id25">
    <rect class="BoundingBox" stroke="none" fill="none" x="13905" y="18769" width="461" height="460"/>
    <path fill="none" stroke="rgb(172,207,204)" stroke-width="21" stroke-linejoin="round" stroke-linecap="round" d="M 13916,18780 L 14354,19217"/>
   </g>
  </g>
  <g class="com.sun.star.drawing.LineShape">
   <g id="id26">
    <rect class="BoundingBox" stroke="none" fill="none" x="12652" y="19748" width="23" height="460"/>
    <path fill="none" stroke="rgb(172,207,204)" stroke-width="21" stroke-linejoin="round" stroke-linecap="round" d="M 12663,19759 L 12663,20196"/>
   </g>
  </g>
  <g class="com.sun.star.drawing.LineShape">
   <g id="id27">
    <rect class="BoundingBox" stroke="none" fill="none" x="14614" y="19748" width="23" height="460"/>
    <path fill="none" stroke="rgb(172,207,204)" stroke-width="21" stroke-linejoin="round" stroke-linecap="round" d="M 14625,19759 L 14625,20196"/>
   </g>
  </g>
  <g class="com.sun.star.drawing.LineShape">
   <g id="id28">
    <rect class="BoundingBox" stroke="none" fill="none" x="14614" y="20728" width="23" height="460"/>
    <path fill="none" stroke="rgb(172,207,204)" stroke-width="21" stroke-linejoin="round" stroke-linecap="round" d="M 14625,20739 L 14625,21176"/>
   </g>
  </g>
  <g class="com.sun.star.drawing.PolyPolygonShape">
   <g id="id29">
    <rect class="BoundingBox" stroke="none" fill="none" x="11987" y="17342" width="105" height="345"/>
    <path fill="rgb(0,0,0)" stroke="none" d="M 12091,17686 L 12018,17516 12091,17342 12074,17342 11988,17516 12074,17686 12091,17686 Z"/>
   </g>
  </g>
  <g class="com.sun.star.drawing.ClosedBezierShape">
   <g id="id30">
    <rect class="BoundingBox" stroke="none" fill="none" x="12124" y="17444" width="172" height="171"/>
    <path fill="rgb(0,0,0)" stroke="none" d="M 12175,17444 L 12124,17456 12124,17465 12150,17469 12124,17614 12154,17614 12175,17494 C 12196,17473 12213,17465 12226,17465 12239,17465 12247,17473 12247,17486 12247,17490 12243,17500 12243,17512 L 12226,17576 C 12226,17585 12226,17589 12226,17593 12226,17610 12235,17614 12253,17614 12261,17614 12274,17614 12295,17606 L 12295,17597 C 12286,17597 12278,17597 12274,17597 12261,17597 12257,17593 12257,17580 12257,17576 12257,17567 12261,17559 L 12270,17504 C 12274,17490 12278,17482 12278,17473 12278,17456 12265,17444 12247,17444 12226,17444 12205,17456 12179,17478 L 12184,17444 12175,17444 Z"/>
   </g>
  </g>
  <g class="com.sun.star.drawing.ClosedBezierShape">
   <g id="id31">
    <rect class="BoundingBox" stroke="none" fill="none" x="12320" y="17444" width="167" height="175"/>
    <path fill="rgb(0,0,0)" stroke="none" d="M 12455,17444 L 12451,17452 C 12438,17444 12430,17444 12417,17444 12383,17444 12353,17461 12337,17490 12324,17507 12320,17533 12320,17554 12320,17593 12337,17618 12366,17618 12383,17618 12400,17606 12421,17589 12421,17610 12426,17618 12443,17618 12451,17618 12465,17614 12486,17606 L 12486,17593 C 12478,17597 12469,17597 12465,17597 12451,17597 12447,17593 12447,17580 12447,17576 12447,17567 12447,17554 L 12461,17494 C 12469,17469 12473,17452 12478,17444 L 12455,17444 Z M 12426,17456 L 12438,17478 12421,17572 C 12404,17589 12392,17597 12379,17597 12358,17597 12349,17580 12349,17554 12349,17494 12379,17456 12417,17456 L 12426,17456 Z"/>
   </g>
  </g>
  <g class="com.sun.star.drawing.ClosedBezierShape">
   <g id="id32">
    <rect class="BoundingBox" stroke="none" fill="none" x="12514" y="17410" width="105" height="205"/>
    <path fill="rgb(0,0,0)" stroke="none" d="M 12557,17410 L 12540,17444 12515,17456 12515,17465 12536,17465 12519,17558 C 12515,17572 12515,17580 12515,17585 12515,17606 12523,17614 12545,17614 12557,17614 12575,17610 12601,17602 L 12601,17589 C 12584,17593 12575,17597 12566,17597 12553,17597 12545,17589 12545,17576 12545,17572 12545,17567 12545,17558 L 12566,17465 12618,17465 12618,17448 12566,17448 12575,17410 12557,17410 Z"/>
   </g>
  </g>
  <g class="com.sun.star.drawing.ClosedBezierShape">
   <g id="id33">
    <rect class="BoundingBox" stroke="none" fill="none" x="12625" y="17444" width="172" height="175"/>
    <path fill="rgb(0,0,0)" stroke="none" d="M 12680,17444 L 12625,17456 12625,17465 12655,17469 12634,17562 C 12634,17572 12634,17576 12634,17585 12634,17606 12646,17618 12668,17618 12685,17618 12706,17606 12731,17589 L 12731,17593 C 12731,17610 12736,17618 12752,17618 12762,17618 12779,17614 12796,17606 L 12796,17597 C 12788,17597 12783,17602 12779,17602 12766,17602 12757,17593 12757,17585 12757,17580 12762,17572 12762,17562 L 12788,17448 12757,17448 12731,17576 C 12714,17589 12693,17597 12680,17597 12668,17597 12663,17589 12663,17576 12663,17572 12663,17562 12668,17549 L 12689,17448 12680,17444 Z"/>
   </g>
  </g>
  <g class="com.sun.star.drawing.ClosedBezierShape">
   <g id="id34">
    <rect class="BoundingBox" stroke="none" fill="none" x="12825" y="17444" width="129" height="171"/>
    <path fill="rgb(0,0,0)" stroke="none" d="M 12876,17444 L 12825,17456 12825,17465 12850,17469 12825,17614 12850,17614 12867,17529 C 12872,17500 12884,17478 12919,17465 L 12928,17486 12932,17486 C 12945,17486 12953,17473 12953,17461 12953,17452 12945,17444 12936,17444 12915,17444 12894,17461 12872,17490 L 12884,17444 12876,17444 Z"/>
   </g>
  </g>
  <g class="com.sun.star.drawing.ClosedBezierShape">
   <g id="id35">
    <rect class="BoundingBox" stroke="none" fill="none" x="12961" y="17444" width="168" height="175"/>
    <path fill="rgb(0,0,0)" stroke="none" d="M 13096,17444 L 13092,17452 C 13080,17444 13067,17444 13058,17444 13024,17444 12995,17461 12978,17490 12965,17507 12961,17533 12961,17554 12961,17593 12978,17618 13007,17618 13024,17618 13041,17606 13058,17589 13058,17610 13067,17618 13084,17618 13092,17618 13105,17614 13127,17606 L 13127,17593 C 13113,17597 13109,17597 13105,17597 13092,17597 13088,17593 13088,17580 13088,17576 13088,17567 13088,17554 L 13101,17494 C 13109,17469 13113,17452 13119,17444 L 13096,17444 Z M 13067,17456 L 13080,17478 13063,17572 C 13045,17589 13033,17597 13020,17597 12999,17597 12990,17580 12990,17554 12990,17494 13020,17456 13058,17456 L 13067,17456 Z"/>
   </g>
  </g>
  <g class="com.sun.star.drawing.ClosedBezierShape">
   <g id="id36">
    <rect class="BoundingBox" stroke="none" fill="none" x="13147" y="17354" width="74" height="265"/>
    <path fill="rgb(0,0,0)" stroke="none" d="M 13212,17354 L 13156,17363 13156,17376 13191,17376 13156,17550 C 13152,17572 13147,17585 13147,17593 13147,17610 13156,17618 13174,17618 13187,17618 13199,17614 13220,17606 L 13220,17593 C 13212,17597 13204,17602 13195,17602 13182,17602 13178,17593 13178,17585 13178,17580 13178,17567 13182,17555 L 13216,17376 C 13216,17376 13216,17367 13220,17354 L 13212,17354 Z"/>
   </g>
  </g>
  <g class="com.sun.star.drawing.PolyPolygonShape">
   <g id="id37">
    <rect class="BoundingBox" stroke="none" fill="none" x="13254" y="17342" width="103" height="345"/>
    <path fill="rgb(0,0,0)" stroke="none" d="M 13356,17516 L 13271,17342 13254,17342 13327,17516 13254,17686 13271,17686 13356,17516 Z"/>
   </g>
  </g>
  <g class="com.sun.star.drawing.PolyPolygonShape">
   <g id="id38">
    <rect class="BoundingBox" stroke="none" fill="none" x="11224" y="18322" width="104" height="349"/>
    <path fill="rgb(0,0,0)" stroke="none" d="M 11327,18670 L 11250,18495 11327,18322 11306,18322 11224,18495 11306,18670 11327,18670 Z"/>
   </g>
  </g>
  <g class="com.sun.star.drawing.ClosedBezierShape">
   <g id="id39">
    <rect class="BoundingBox" stroke="none" fill="none" x="11352" y="18334" width="171" height="265"/>
    <path fill="rgb(0,0,0)" stroke="none" d="M 11514,18334 L 11459,18347 11459,18355 11489,18360 11476,18428 C 11467,18423 11459,18423 11450,18423 11421,18423 11390,18440 11368,18470 11356,18488 11352,18513 11352,18534 11352,18577 11368,18598 11398,18598 11416,18598 11437,18586 11454,18564 11454,18569 11454,18569 11454,18573 11454,18590 11459,18598 11476,18598 11484,18598 11501,18594 11518,18586 L 11518,18577 C 11510,18581 11501,18581 11497,18581 11489,18581 11480,18577 11480,18564 11480,18560 11484,18556 11484,18547 L 11522,18334 11514,18334 Z M 11454,18436 L 11471,18457 11454,18547 C 11442,18569 11425,18577 11412,18577 11394,18577 11381,18564 11381,18534 11381,18474 11416,18436 11446,18436 11450,18436 11450,18436 11454,18436 Z"/>
   </g>
  </g>
  <g class="com.sun.star.drawing.ClosedBezierShape">
   <g id="id40">
    <rect class="BoundingBox" stroke="none" fill="none" x="11538" y="18347" width="79" height="252"/>
    <path fill="rgb(0,0,0)" stroke="none" d="M 11599,18347 C 11585,18347 11577,18355 11577,18364 11577,18377 11585,18386 11599,18386 11607,18386 11616,18377 11616,18364 11616,18355 11607,18347 11599,18347 Z M 11590,18424 L 11538,18437 11538,18446 11568,18450 11547,18556 C 11543,18564 11543,18569 11543,18573 11543,18590 11551,18598 11568,18598 11581,18598 11599,18594 11616,18586 L 11616,18573 C 11607,18577 11599,18581 11590,18581 11581,18581 11572,18577 11572,18564 11572,18564 11572,18560 11572,18556 L 11599,18424 11590,18424 Z"/>
   </g>
  </g>
  <g class="com.sun.star.drawing.ClosedBezierShape">
   <g id="id41">
    <rect class="BoundingBox" stroke="none" fill="none" x="11619" y="18423" width="180" height="248"/>
    <path fill="rgb(0,0,0)" stroke="none" d="M 11747,18432 C 11739,18428 11726,18423 11718,18423 11680,18423 11649,18453 11649,18491 11649,18513 11657,18526 11680,18534 11671,18547 11667,18560 11667,18569 11667,18573 11667,18573 11667,18577 11632,18590 11619,18602 11619,18624 11619,18653 11644,18670 11688,18670 11735,18670 11773,18645 11773,18619 11773,18602 11760,18594 11743,18586 L 11688,18560 11688,18556 C 11688,18551 11688,18543 11692,18539 11696,18539 11701,18539 11701,18539 11735,18539 11769,18509 11769,18470 11769,18466 11764,18457 11764,18449 L 11798,18449 11798,18432 11747,18432 Z M 11739,18470 C 11739,18500 11718,18526 11701,18526 11684,18526 11675,18518 11675,18495 11675,18462 11696,18436 11718,18436 11730,18436 11739,18449 11739,18470 Z M 11680,18581 L 11726,18602 C 11739,18611 11743,18615 11743,18628 11743,18641 11726,18658 11696,18658 11667,18658 11644,18641 11644,18619 11644,18598 11657,18590 11680,18581 Z"/>
   </g>
  </g>
  <g class="com.sun.star.drawing.ClosedBezierShape">
   <g id="id42">
    <rect class="BoundingBox" stroke="none" fill="none" x="11810" y="18347" width="78" height="252"/>
    <path fill="rgb(0,0,0)" stroke="none" d="M 11871,18347 C 11858,18347 11849,18355 11849,18364 11849,18377 11858,18386 11871,18386 11879,18386 11887,18377 11887,18364 11887,18355 11879,18347 11871,18347 Z M 11862,18424 L 11810,18437 11810,18446 11841,18450 11819,18556 C 11814,18564 11814,18569 11814,18573 11814,18590 11824,18598 11836,18598 11854,18598 11871,18594 11887,18586 L 11887,18573 C 11879,18577 11871,18581 11862,18581 11849,18581 11845,18577 11845,18564 11845,18564 11845,18560 11845,18556 L 11871,18424 11862,18424 Z"/>
   </g>
  </g>
  <g class="com.sun.star.drawing.ClosedBezierShape">
   <g id="id43">
    <rect class="BoundingBox" stroke="none" fill="none" x="11916" y="18389" width="104" height="210"/>
    <path fill="rgb(0,0,0)" stroke="none" d="M 11959,18389 L 11942,18428 11916,18436 11916,18449 11937,18445 11920,18543 C 11916,18551 11916,18560 11916,18564 11916,18586 11925,18598 11946,18598 11959,18598 11977,18594 12002,18581 L 12002,18573 C 11985,18577 11977,18577 11967,18577 11954,18577 11946,18569 11946,18556 11946,18551 11946,18547 11946,18539 L 11967,18445 12019,18445 12019,18432 11967,18432 11977,18389 11959,18389 Z"/>
   </g>
  </g>
  <g class="com.sun.star.drawing.PolyPolygonShape">
   <g id="id44">
    <rect class="BoundingBox" stroke="none" fill="none" x="12034" y="18322" width="105" height="349"/>
    <path fill="rgb(0,0,0)" stroke="none" d="M 12138,18495 L 12056,18322 12035,18322 12112,18495 12035,18670 12056,18670 12138,18495 Z"/>
   </g>
  </g>
  <g class="com.sun.star.drawing.PolyPolygonShape">
   <g id="id45">
    <rect class="BoundingBox" stroke="none" fill="none" x="12972" y="18322" width="105" height="349"/>
    <path fill="rgb(0,0,0)" stroke="none" d="M 13076,18670 L 13000,18495 13076,18322 13055,18322 12973,18495 13055,18670 13076,18670 Z"/>
   </g>
  </g>
  <g class="com.sun.star.drawing.ClosedBezierShape">
   <g id="id46">
    <rect class="BoundingBox" stroke="none" fill="none" x="13104" y="18423" width="173" height="176"/>
    <path fill="rgb(0,0,0)" stroke="none" d="M 13156,18423 L 13105,18437 13105,18446 13135,18450 13105,18594 13135,18594 13156,18475 C 13177,18458 13198,18446 13207,18446 13224,18446 13228,18454 13228,18471 13228,18475 13228,18484 13224,18492 L 13211,18556 C 13207,18564 13207,18573 13207,18577 13207,18590 13215,18598 13232,18598 13241,18598 13258,18594 13276,18586 L 13276,18577 C 13267,18577 13262,18581 13254,18581 13245,18581 13237,18573 13237,18564 13237,18556 13237,18551 13241,18539 L 13254,18484 C 13254,18471 13258,18463 13258,18454 13258,18437 13245,18423 13228,18423 13211,18423 13186,18437 13160,18458 L 13164,18423 13156,18423 Z"/>
   </g>
  </g>
  <g class="com.sun.star.drawing.ClosedBezierShape">
   <g id="id47">
    <rect class="BoundingBox" stroke="none" fill="none" x="13300" y="18423" width="169" height="176"/>
    <path fill="rgb(0,0,0)" stroke="none" d="M 13440,18423 L 13432,18433 C 13419,18428 13410,18423 13402,18423 13364,18423 13339,18441 13317,18471 13309,18492 13300,18513 13300,18534 13300,18577 13317,18598 13351,18598 13368,18598 13381,18590 13402,18569 L 13402,18573 C 13402,18590 13406,18598 13423,18598 13432,18598 13450,18594 13467,18586 L 13467,18577 C 13458,18577 13450,18577 13445,18577 13432,18577 13428,18573 13428,18564 13428,18556 13428,18551 13432,18539 L 13445,18475 C 13450,18450 13454,18433 13458,18423 L 13440,18423 Z M 13406,18441 L 13419,18463 13402,18551 C 13389,18569 13372,18577 13360,18577 13339,18577 13330,18564 13330,18534 13330,18479 13360,18441 13402,18441 L 13406,18441 Z"/>
   </g>
  </g>
  <g class="com.sun.star.drawing.ClosedBezierShape">
   <g id="id48">
    <rect class="BoundingBox" stroke="none" fill="none" x="13495" y="18389" width="109" height="210"/>
    <path fill="rgb(0,0,0)" stroke="none" d="M 13543,18389 L 13522,18428 13495,18436 13495,18449 13522,18445 13500,18543 C 13500,18551 13495,18560 13495,18564 13495,18586 13508,18598 13526,18598 13539,18598 13560,18594 13581,18581 L 13581,18573 C 13569,18577 13556,18577 13547,18577 13535,18577 13526,18569 13526,18556 13526,18551 13526,18547 13531,18539 L 13547,18445 13603,18445 13603,18432 13552,18432 13556,18389 13543,18389 Z"/>
   </g>
  </g>
  <g class="com.sun.star.drawing.ClosedBezierShape">
   <g id="id49">
    <rect class="BoundingBox" stroke="none" fill="none" x="13609" y="18423" width="173" height="176"/>
    <path fill="rgb(0,0,0)" stroke="none" d="M 13665,18423 L 13610,18437 13610,18446 13640,18450 13619,18543 C 13614,18551 13614,18560 13614,18564 13614,18586 13627,18598 13648,18598 13670,18598 13691,18590 13712,18569 13712,18573 13712,18573 13712,18577 13712,18590 13721,18598 13733,18598 13746,18598 13759,18594 13781,18586 L 13781,18577 C 13771,18581 13763,18581 13759,18581 13746,18581 13742,18573 13742,18569 13742,18560 13742,18551 13746,18543 L 13771,18428 13742,18428 13716,18556 C 13695,18573 13678,18577 13665,18577 13653,18577 13644,18573 13644,18560 13644,18551 13644,18543 13648,18530 L 13670,18428 13665,18423 Z"/>
   </g>
  </g>
  <g class="com.sun.star.drawing.ClosedBezierShape">
   <g id="id50">
    <rect class="BoundingBox" stroke="none" fill="none" x="13806" y="18422" width="134" height="173"/>
    <path fill="rgb(0,0,0)" stroke="none" d="M 13857,18423 L 13806,18436 13806,18445 13836,18449 13806,18594 13836,18594 13849,18513 C 13857,18478 13866,18462 13900,18449 L 13913,18466 C 13930,18466 13938,18457 13938,18445 13938,18432 13930,18423 13917,18423 13900,18423 13878,18440 13853,18474 L 13866,18423 13857,18423 Z"/>
   </g>
  </g>
  <g class="com.sun.star.drawing.ClosedBezierShape">
   <g id="id51">
    <rect class="BoundingBox" stroke="none" fill="none" x="13940" y="18423" width="170" height="176"/>
    <path fill="rgb(0,0,0)" stroke="none" d="M 14082,18423 L 14074,18433 C 14061,18428 14053,18423 14044,18423 14006,18423 13981,18441 13959,18471 13951,18492 13941,18513 13941,18534 13941,18577 13959,18598 13989,18598 14006,18598 14023,18590 14044,18569 L 14044,18573 C 14044,18590 14048,18598 14065,18598 14074,18598 14091,18594 14109,18586 L 14109,18577 C 14099,18577 14091,18577 14087,18577 14074,18577 14070,18573 14070,18564 14070,18556 14070,18551 14074,18539 L 14087,18475 C 14091,18450 14095,18433 14099,18423 L 14082,18423 Z M 14048,18441 L 14061,18463 14044,18551 C 14031,18569 14014,18577 14002,18577 13981,18577 13972,18564 13972,18534 13972,18479 14002,18441 14044,18441 L 14048,18441 Z"/>
   </g>
  </g>
  <g class="com.sun.star.drawing.ClosedBezierShape">
   <g id="id52">
    <rect class="BoundingBox" stroke="none" fill="none" x="14128" y="18334" width="79" height="265"/>
    <path fill="rgb(0,0,0)" stroke="none" d="M 14193,18334 L 14141,18347 14141,18355 14171,18360 14137,18530 C 14132,18551 14128,18569 14128,18573 14128,18590 14137,18598 14158,18598 14166,18598 14184,18594 14206,18586 L 14206,18577 C 14193,18577 14184,18581 14180,18581 14166,18581 14158,18577 14158,18564 14158,18560 14158,18551 14162,18534 L 14197,18360 C 14201,18355 14201,18347 14201,18334 L 14193,18334 Z"/>
   </g>
  </g>
  <g class="com.sun.star.drawing.PolyPolygonShape">
   <g id="id53">
    <rect class="BoundingBox" stroke="none" fill="none" x="14234" y="18322" width="104" height="349"/>
    <path fill="rgb(0,0,0)" stroke="none" d="M 14337,18495 L 14256,18322 14234,18322 14312,18495 14234,18670 14256,18670 14337,18495 Z"/>
   </g>
  </g>
  <g class="com.sun.star.drawing.ClosedBezierShape">
   <g id="id54">
    <rect class="BoundingBox" stroke="none" fill="none" x="11619" y="19343" width="133" height="240"/>
    <path fill="rgb(0,0,0)" stroke="none" d="M 11747,19403 C 11747,19394 11743,19386 11743,19377 11739,19373 11735,19365 11726,19361 11721,19352 11712,19348 11708,19348 11700,19344 11691,19344 11683,19344 11657,19344 11640,19352 11627,19369 L 11640,19382 C 11653,19369 11666,19365 11679,19365 11687,19365 11691,19365 11695,19369 11700,19369 11704,19373 11708,19377 11712,19377 11717,19382 11717,19386 11721,19390 11721,19394 11721,19399 11721,19407 11721,19412 11717,19416 11717,19424 11712,19429 11708,19433 11704,19437 11695,19437 11687,19441 11679,19441 11670,19445 11657,19445 L 11657,19467 C 11661,19462 11661,19462 11666,19462 L 11670,19462 C 11687,19462 11700,19467 11712,19475 11721,19484 11726,19496 11726,19509 11726,19513 11726,19522 11721,19526 11721,19530 11717,19539 11712,19543 11708,19547 11704,19547 11695,19552 11691,19556 11687,19556 11679,19556 11674,19556 11666,19556 11661,19552 11653,19547 11649,19547 11649,19543 L 11644,19539 C 11640,19539 11640,19539 11640,19534 11640,19530 11640,19530 11636,19530 L 11619,19552 C 11636,19570 11653,19582 11679,19582 11687,19582 11700,19578 11708,19574 11717,19570 11726,19565 11730,19561 11739,19552 11743,19547 11747,19539 11751,19530 11751,19522 11751,19513 11751,19496 11747,19484 11739,19475 11735,19462 11721,19454 11712,19450 11721,19445 11730,19441 11739,19433 11743,19424 11747,19412 11747,19403 Z"/>
   </g>
  </g>
  <g class="com.sun.star.drawing.PolyPolygonShape">
   <g id="id55">
    <rect class="BoundingBox" stroke="none" fill="none" x="13954" y="19306" width="104" height="345"/>
    <path fill="rgb(0,0,0)" stroke="none" d="M 14057,19650 L 13980,19476 14057,19306 14040,19306 13954,19476 14040,19650 14057,19650 Z"/>
   </g>
  </g>
  <g class="com.sun.star.drawing.ClosedBezierShape">
   <g id="id56">
    <rect class="BoundingBox" stroke="none" fill="none" x="14086" y="19407" width="172" height="172"/>
    <path fill="rgb(0,0,0)" stroke="none" d="M 14142,19407 L 14086,19416 14086,19424 14116,19433 14086,19578 14116,19578 14142,19458 C 14163,19437 14180,19429 14193,19429 14206,19429 14210,19433 14210,19450 14210,19454 14210,19462 14210,19471 L 14193,19540 C 14193,19544 14189,19553 14189,19557 14189,19570 14197,19578 14214,19578 14227,19578 14239,19574 14257,19570 L 14257,19557 C 14248,19561 14244,19561 14239,19561 14227,19561 14218,19557 14218,19544 14218,19540 14222,19531 14222,19522 L 14235,19467 C 14239,19454 14239,19441 14239,19433 14239,19416 14231,19407 14210,19407 14193,19407 14172,19416 14142,19441 L 14150,19407 14142,19407 Z"/>
   </g>
  </g>
  <g class="com.sun.star.drawing.ClosedBezierShape">
   <g id="id57">
    <rect class="BoundingBox" stroke="none" fill="none" x="14281" y="19407" width="172" height="172"/>
    <path fill="rgb(0,0,0)" stroke="none" d="M 14421,19407 L 14412,19412 C 14404,19407 14391,19407 14383,19407 14349,19407 14319,19424 14302,19454 14289,19471 14281,19492 14281,19517 14281,19557 14302,19578 14332,19578 14349,19578 14366,19570 14383,19548 L 14383,19553 C 14383,19570 14391,19578 14404,19578 14417,19578 14429,19574 14452,19565 L 14452,19557 C 14438,19557 14434,19561 14429,19561 14417,19561 14408,19557 14408,19544 14408,19540 14412,19531 14412,19517 L 14425,19458 C 14429,19429 14438,19412 14438,19407 L 14421,19407 Z M 14387,19420 L 14404,19441 14383,19535 C 14370,19548 14357,19557 14345,19557 14323,19557 14311,19544 14311,19513 14311,19458 14340,19420 14383,19420 L 14387,19420 Z"/>
   </g>
  </g>
  <g class="com.sun.star.drawing.ClosedBezierShape">
   <g id="id58">
    <rect class="BoundingBox" stroke="none" fill="none" x="14480" y="19373" width="104" height="206"/>
    <path fill="rgb(0,0,0)" stroke="none" d="M 14524,19373 L 14507,19408 14480,19421 14480,19430 14503,19430 14480,19523 C 14480,19531 14480,19540 14480,19548 14480,19570 14489,19578 14511,19578 14524,19578 14541,19574 14566,19565 L 14566,19553 C 14549,19557 14541,19561 14533,19561 14515,19561 14511,19553 14511,19535 14511,19535 14511,19527 14511,19523 L 14528,19430 14583,19430 14583,19413 14533,19413 14541,19373 14524,19373 Z"/>
   </g>
  </g>
  <g class="com.sun.star.drawing.ClosedBezierShape">
   <g id="id59">
    <rect class="BoundingBox" stroke="none" fill="none" x="14591" y="19407" width="172" height="172"/>
    <path fill="rgb(0,0,0)" stroke="none" d="M 14647,19407 L 14591,19416 14591,19424 14621,19433 14599,19527 C 14599,19531 14599,19540 14599,19544 14599,19565 14612,19578 14634,19578 14651,19578 14672,19570 14698,19548 14698,19553 14698,19553 14698,19557 14698,19574 14702,19578 14719,19578 14728,19578 14745,19574 14762,19570 L 14762,19557 C 14753,19561 14749,19561 14740,19561 14732,19561 14724,19557 14724,19548 14724,19540 14728,19535 14728,19522 L 14753,19407 14724,19407 14698,19535 C 14677,19553 14660,19561 14647,19561 14634,19561 14626,19553 14626,19540 14626,19535 14630,19527 14630,19513 L 14651,19412 14647,19407 Z"/>
   </g>
  </g>
  <g class="com.sun.star.drawing.ClosedBezierShape">
   <g id="id60">
    <rect class="BoundingBox" stroke="none" fill="none" x="14785" y="19407" width="135" height="172"/>
    <path fill="rgb(0,0,0)" stroke="none" d="M 14841,19407 L 14786,19416 14786,19424 14816,19433 14786,19578 14816,19578 14833,19492 C 14837,19462 14850,19441 14885,19429 L 14893,19445 C 14910,19445 14919,19437 14919,19424 14919,19412 14910,19407 14897,19407 14880,19407 14858,19420 14837,19454 L 14846,19407 14841,19407 Z"/>
   </g>
  </g>
  <g class="com.sun.star.drawing.ClosedBezierShape">
   <g id="id61">
    <rect class="BoundingBox" stroke="none" fill="none" x="14922" y="19407" width="169" height="172"/>
    <path fill="rgb(0,0,0)" stroke="none" d="M 15063,19407 L 15055,19412 C 15046,19407 15033,19407 15025,19407 14991,19407 14961,19424 14944,19454 14931,19471 14922,19492 14922,19517 14922,19557 14944,19578 14974,19578 14991,19578 15008,19570 15025,19548 L 15025,19553 C 15025,19570 15033,19578 15046,19578 15059,19578 15071,19574 15089,19565 L 15089,19557 C 15080,19557 15076,19561 15071,19561 15059,19561 15050,19557 15050,19544 15050,19540 15055,19531 15055,19517 L 15067,19458 C 15071,19429 15076,19412 15080,19407 L 15063,19407 Z M 15029,19420 L 15046,19441 15025,19535 C 15012,19548 15000,19557 14987,19557 14965,19557 14953,19544 14953,19513 14953,19458 14982,19420 15025,19420 L 15029,19420 Z"/>
   </g>
  </g>
  <g class="com.sun.star.drawing.ClosedBezierShape">
   <g id="id62">
    <rect class="BoundingBox" stroke="none" fill="none" x="15113" y="19318" width="74" height="261"/>
    <path fill="rgb(0,0,0)" stroke="none" d="M 15178,19318 L 15122,19327 15122,19335 15151,19339 15117,19514 C 15113,19535 15113,19548 15113,19553 15113,19570 15122,19578 15138,19578 15147,19578 15165,19578 15186,19570 L 15186,19557 C 15173,19561 15165,19561 15161,19561 15147,19561 15143,19557 15143,19544 15143,19540 15143,19531 15143,19518 L 15182,19339 C 15182,19335 15182,19331 15186,19318 L 15178,19318 Z"/>
   </g>
  </g>
  <g class="com.sun.star.drawing.PolyPolygonShape">
   <g id="id63">
    <rect class="BoundingBox" stroke="none" fill="none" x="15219" y="19306" width="101" height="345"/>
    <path fill="rgb(0,0,0)" stroke="none" d="M 15318,19476 L 15236,19306 15219,19306 15292,19476 15219,19650 15236,19650 15318,19476 Z"/>
   </g>
  </g>
  <g class="com.sun.star.drawing.PolyPolygonShape">
   <g id="id64">
    <rect class="BoundingBox" stroke="none" fill="none" x="12204" y="19306" width="105" height="345"/>
    <path fill="rgb(0,0,0)" stroke="none" d="M 12308,19650 L 12230,19476 12308,19306 12291,19306 12205,19476 12291,19650 12308,19650 Z"/>
   </g>
  </g>
  <g class="com.sun.star.drawing.ClosedBezierShape">
   <g id="id65">
    <rect class="BoundingBox" stroke="none" fill="none" x="12331" y="19318" width="173" height="261"/>
    <path fill="rgb(0,0,0)" stroke="none" d="M 12494,19318 L 12439,19327 12439,19335 12473,19339 12461,19412 C 12448,19407 12439,19403 12431,19403 12400,19403 12370,19420 12349,19454 12341,19471 12332,19493 12332,19518 12332,19557 12353,19578 12379,19578 12400,19578 12417,19570 12435,19548 L 12435,19553 C 12435,19570 12444,19578 12461,19578 12469,19578 12482,19574 12503,19570 L 12503,19557 C 12490,19561 12486,19561 12478,19561 12469,19561 12465,19557 12465,19548 12465,19544 12465,19535 12465,19527 L 12503,19318 12494,19318 Z M 12439,19420 L 12456,19441 12439,19531 C 12422,19548 12404,19561 12392,19561 12375,19561 12362,19544 12362,19514 12362,19458 12396,19420 12431,19420 12431,19420 12435,19420 12439,19420 Z"/>
   </g>
  </g>
  <g class="com.sun.star.drawing.ClosedBezierShape">
   <g id="id66">
    <rect class="BoundingBox" stroke="none" fill="none" x="12519" y="19327" width="83" height="252"/>
    <path fill="rgb(0,0,0)" stroke="none" d="M 12578,19327 C 12570,19327 12561,19335 12561,19348 12561,19356 12570,19365 12578,19365 12591,19365 12601,19356 12601,19348 12601,19335 12591,19327 12578,19327 Z M 12574,19408 L 12519,19417 12519,19425 12549,19434 12528,19535 C 12528,19544 12528,19553 12528,19557 12528,19570 12532,19578 12549,19578 12561,19578 12578,19574 12601,19565 L 12601,19557 C 12587,19561 12578,19561 12574,19561 12561,19561 12557,19557 12557,19548 12557,19544 12557,19544 12557,19540 L 12583,19408 12574,19408 Z"/>
   </g>
  </g>
  <g class="com.sun.star.drawing.ClosedBezierShape">
   <g id="id67">
    <rect class="BoundingBox" stroke="none" fill="none" x="12600" y="19407" width="184" height="248"/>
    <path fill="rgb(0,0,0)" stroke="none" d="M 12732,19416 C 12720,19407 12711,19407 12698,19407 12660,19407 12629,19437 12629,19475 12629,19493 12642,19510 12664,19518 12652,19531 12646,19540 12646,19553 L 12646,19557 C 12617,19570 12600,19582 12600,19608 12600,19633 12625,19654 12669,19654 12715,19654 12753,19625 12753,19599 12753,19586 12745,19574 12724,19565 L 12669,19540 C 12669,19531 12673,19527 12673,19518 12677,19518 12681,19518 12681,19518 12720,19518 12749,19493 12749,19454 12749,19445 12749,19437 12745,19429 L 12783,19429 12783,19416 12732,19416 Z M 12724,19450 C 12724,19485 12703,19510 12681,19510 12669,19510 12656,19497 12656,19479 12656,19445 12677,19420 12698,19420 12715,19420 12724,19429 12724,19450 Z M 12660,19565 L 12707,19586 C 12720,19591 12728,19599 12728,19608 12728,19625 12707,19637 12677,19637 12646,19637 12629,19620 12629,19599 12629,19582 12638,19570 12660,19565 Z"/>
   </g>
  </g>
  <g class="com.sun.star.drawing.ClosedBezierShape">
   <g id="id68">
    <rect class="BoundingBox" stroke="none" fill="none" x="12791" y="19327" width="83" height="252"/>
    <path fill="rgb(0,0,0)" stroke="none" d="M 12851,19327 C 12843,19327 12833,19335 12833,19348 12833,19356 12843,19365 12851,19365 12864,19365 12873,19356 12873,19348 12873,19335 12864,19327 12851,19327 Z M 12843,19408 L 12791,19417 12791,19425 12820,19434 12799,19535 C 12799,19544 12799,19553 12799,19557 12799,19570 12804,19578 12820,19578 12833,19578 12851,19574 12873,19565 L 12873,19557 C 12860,19561 12851,19561 12843,19561 12833,19561 12825,19557 12825,19548 12825,19544 12829,19544 12829,19540 L 12855,19408 12843,19408 Z"/>
   </g>
  </g>
  <g class="com.sun.star.drawing.ClosedBezierShape">
   <g id="id69">
    <rect class="BoundingBox" stroke="none" fill="none" x="12897" y="19373" width="108" height="206"/>
    <path fill="rgb(0,0,0)" stroke="none" d="M 12944,19373 L 12922,19408 12897,19421 12897,19430 12922,19430 12901,19523 C 12901,19531 12897,19540 12897,19548 12897,19570 12910,19578 12927,19578 12939,19578 12961,19574 12982,19565 L 12982,19553 C 12969,19557 12956,19561 12948,19561 12935,19561 12927,19553 12927,19535 12927,19535 12927,19527 12931,19523 L 12948,19430 13004,19430 13004,19413 12952,19413 12956,19373 12944,19373 Z"/>
   </g>
  </g>
  <g class="com.sun.star.drawing.PolyPolygonShape">
   <g id="id70">
    <rect class="BoundingBox" stroke="none" fill="none" x="13019" y="19306" width="105" height="345"/>
    <path fill="rgb(0,0,0)" stroke="none" d="M 13123,19476 L 13037,19306 13020,19306 13093,19476 13020,19650 13037,19650 13123,19476 Z"/>
   </g>
  </g>
  <g class="com.sun.star.drawing.ClosedBezierShape">
   <g id="id71">
    <rect class="BoundingBox" stroke="none" fill="none" x="12600" y="20323" width="142" height="236"/>
    <path fill="rgb(0,0,0)" stroke="none" d="M 12604,20361 L 12621,20374 C 12621,20374 12625,20374 12625,20370 12625,20370 12625,20366 12629,20361 12629,20361 12634,20357 12638,20353 12642,20353 12646,20349 12651,20349 12655,20345 12663,20345 12668,20345 12672,20345 12680,20345 12685,20349 12689,20353 12693,20353 12697,20357 12702,20361 12706,20366 12706,20374 12710,20379 12710,20383 12710,20387 12710,20391 12710,20397 12710,20401 12710,20405 12706,20409 12706,20414 12702,20418 12697,20422 12697,20430 12693,20435 12689,20439 12680,20443 L 12663,20460 C 12651,20469 12642,20481 12629,20494 12621,20507 12613,20524 12600,20541 L 12600,20558 12741,20558 12741,20532 12737,20532 C 12732,20537 12732,20537 12732,20537 L 12634,20537 C 12634,20528 12638,20524 12642,20520 12646,20515 12651,20511 12651,20502 12655,20498 12659,20494 12663,20490 12668,20486 12672,20481 12676,20481 L 12697,20460 C 12702,20456 12706,20452 12714,20443 12720,20439 12724,20435 12724,20426 12728,20422 12732,20418 12732,20409 12737,20405 12737,20397 12737,20387 12737,20379 12737,20370 12732,20361 12728,20353 12724,20349 12714,20340 12710,20336 12702,20332 12693,20328 12685,20323 12676,20323 12668,20323 12655,20323 12642,20328 12629,20332 12621,20340 12608,20349 12604,20361 Z"/>
   </g>
  </g>
  <g class="com.sun.star.drawing.PolyPolygonShape">
   <g id="id72">
    <rect class="BoundingBox" stroke="none" fill="none" x="14171" y="20285" width="104" height="346"/>
    <path fill="rgb(0,0,0)" stroke="none" d="M 14274,20630 L 14197,20460 14274,20285 14252,20285 14171,20460 14252,20630 14274,20630 Z"/>
   </g>
  </g>
  <g class="com.sun.star.drawing.ClosedBezierShape">
   <g id="id73">
    <rect class="BoundingBox" stroke="none" fill="none" x="14297" y="20298" width="173" height="265"/>
    <path fill="rgb(0,0,0)" stroke="none" d="M 14460,20298 L 14404,20306 14404,20320 14434,20324 14421,20392 C 14412,20388 14404,20388 14396,20388 14366,20388 14336,20405 14315,20435 14306,20452 14298,20473 14298,20498 14298,20537 14315,20562 14345,20562 14362,20562 14383,20549 14400,20528 14400,20532 14400,20532 14400,20537 14400,20554 14408,20562 14421,20562 14434,20562 14447,20558 14469,20549 L 14469,20541 C 14456,20541 14447,20545 14442,20545 14434,20545 14429,20537 14429,20528 14429,20524 14429,20515 14429,20511 L 14469,20298 14460,20298 Z M 14400,20401 L 14417,20422 14404,20511 C 14387,20532 14370,20541 14357,20541 14340,20541 14328,20524 14328,20498 14328,20439 14362,20401 14391,20401 14396,20401 14400,20401 14400,20401 Z"/>
   </g>
  </g>
  <g class="com.sun.star.drawing.ClosedBezierShape">
   <g id="id74">
    <rect class="BoundingBox" stroke="none" fill="none" x="14485" y="20311" width="78" height="252"/>
    <path fill="rgb(0,0,0)" stroke="none" d="M 14544,20311 C 14536,20311 14527,20319 14527,20328 14527,20340 14536,20349 14544,20349 14553,20349 14562,20340 14562,20328 14562,20319 14553,20311 14544,20311 Z M 14536,20388 L 14485,20401 14485,20409 14514,20414 14493,20520 C 14493,20528 14489,20532 14489,20537 14489,20554 14497,20562 14514,20562 14527,20562 14544,20558 14562,20549 L 14562,20537 C 14553,20541 14544,20541 14536,20541 14527,20541 14519,20537 14519,20528 14519,20528 14519,20524 14523,20520 L 14544,20388 14536,20388 Z"/>
   </g>
  </g>
  <g class="com.sun.star.drawing.ClosedBezierShape">
   <g id="id75">
    <rect class="BoundingBox" stroke="none" fill="none" x="14565" y="20387" width="182" height="248"/>
    <path fill="rgb(0,0,0)" stroke="none" d="M 14698,20396 C 14684,20391 14671,20387 14663,20387 14625,20387 14595,20417 14595,20455 14595,20473 14604,20490 14625,20498 14616,20511 14612,20520 14612,20532 14612,20537 14612,20537 14612,20541 14582,20549 14565,20566 14565,20587 14565,20617 14591,20634 14633,20634 14680,20634 14719,20609 14719,20583 14719,20566 14711,20554 14689,20549 L 14633,20524 14633,20520 C 14633,20511 14633,20507 14638,20502 14642,20502 14646,20502 14646,20502 14685,20502 14715,20473 14715,20434 14715,20425 14715,20417 14711,20413 L 14745,20413 14745,20396 14698,20396 Z M 14684,20434 C 14684,20463 14663,20490 14646,20490 14629,20490 14620,20477 14620,20459 14620,20425 14642,20400 14663,20400 14676,20400 14684,20413 14684,20434 Z M 14625,20545 L 14671,20566 C 14685,20570 14689,20579 14689,20587 14689,20604 14671,20621 14642,20621 14612,20621 14591,20604 14591,20579 14591,20562 14604,20549 14625,20545 Z"/>
   </g>
  </g>
  <g class="com.sun.star.drawing.ClosedBezierShape">
   <g id="id76">
    <rect class="BoundingBox" stroke="none" fill="none" x="14756" y="20311" width="79" height="252"/>
    <path fill="rgb(0,0,0)" stroke="none" d="M 14817,20311 C 14804,20311 14796,20319 14796,20328 14796,20340 14804,20349 14817,20349 14825,20349 14834,20340 14834,20328 14834,20319 14825,20311 14817,20311 Z M 14808,20388 L 14756,20401 14756,20409 14787,20414 14765,20520 C 14761,20528 14761,20532 14761,20537 14761,20554 14769,20562 14787,20562 14800,20562 14817,20558 14834,20549 L 14834,20537 C 14825,20541 14817,20541 14808,20541 14800,20541 14791,20537 14791,20528 14791,20528 14791,20524 14791,20520 L 14817,20388 14808,20388 Z"/>
   </g>
  </g>
  <g class="com.sun.star.drawing.ClosedBezierShape">
   <g id="id77">
    <rect class="BoundingBox" stroke="none" fill="none" x="14863" y="20353" width="103" height="210"/>
    <path fill="rgb(0,0,0)" stroke="none" d="M 14906,20353 L 14888,20387 14863,20401 14863,20409 14884,20409 14867,20502 C 14863,20515 14863,20524 14863,20528 14863,20549 14871,20562 14892,20562 14906,20562 14923,20554 14948,20545 L 14948,20532 C 14936,20537 14923,20541 14915,20541 14902,20541 14892,20532 14892,20520 14892,20515 14892,20511 14892,20502 L 14915,20409 14965,20409 14965,20391 14915,20391 14923,20353 14906,20353 Z"/>
   </g>
  </g>
  <g class="com.sun.star.drawing.PolyPolygonShape">
   <g id="id78">
    <rect class="BoundingBox" stroke="none" fill="none" x="14986" y="20285" width="99" height="346"/>
    <path fill="rgb(0,0,0)" stroke="none" d="M 15084,20460 L 15003,20285 14986,20285 15058,20460 14986,20630 15003,20630 15084,20460 Z"/>
   </g>
  </g>
  <g class="com.sun.star.drawing.PolyPolygonShape">
   <g id="id79">
    <rect class="BoundingBox" stroke="none" fill="none" x="14570" y="21303" width="82" height="236"/>
    <path fill="rgb(0,0,0)" stroke="none" d="M 14651,21303 L 14634,21303 14570,21338 14578,21351 14626,21338 14626,21537 14651,21537 14651,21303 Z"/>
   </g>
  </g>
 </g>
</svg>