<?xml version="1.0" encoding="UTF-8" standalone="no"?>
<svg
   xmlns:dc="http://purl.org/dc/elements/1.1/"
   xmlns:cc="http://creativecommons.org/ns#"
   xmlns:rdf="http://www.w3.org/1999/02/22-rdf-syntax-ns#"
   xmlns:svg="http://www.w3.org/2000/svg"
   xmlns="http://www.w3.org/2000/svg"
   xmlns:sodipodi="http://sodipodi.sourceforge.net/DTD/sodipodi-0.dtd"
   xmlns:inkscape="http://www.inkscape.org/namespaces/inkscape"
   width="22.754061mm"
   height="8.0111256mm"
   viewBox="0 0 22.754061 8.0111256"
   version="1.1"
   id="svg15893"
   inkscape:version="1.0.2-2 (e86c870879, 2021-01-15)"
   sodipodi:docname="Modulo_X_11_111_Fig3.svg">
  <defs
     id="defs15887">
    <clipPath
       clipPathUnits="userSpaceOnUse"
       id="clipPath13478">
      <path
         d="M 0,0 H 64.56 V 22.73 H 0 Z"
         id="path13476" />
    </clipPath>
  </defs>
  <sodipodi:namedview
     id="base"
     pagecolor="#ffffff"
     bordercolor="#666666"
     borderopacity="1.0"
     inkscape:pageopacity="0.0"
     inkscape:pageshadow="2"
     inkscape:zoom="3.959798"
     inkscape:cx="-34.143058"
     inkscape:cy="52.282008"
     inkscape:document-units="mm"
     inkscape:current-layer="layer1"
     inkscape:document-rotation="0"
     showgrid="false"
     fit-margin-top="0"
     fit-margin-left="0"
     fit-margin-right="0"
     fit-margin-bottom="0"
     inkscape:window-width="2221"
     inkscape:window-height="1228"
     inkscape:window-x="0"
     inkscape:window-y="1620"
     inkscape:window-maximized="0" />
  <metadata
     id="metadata15890">
    <rdf:RDF>
      <cc:Work
         rdf:about="">
        <dc:format>image/svg+xml</dc:format>
        <dc:type
           rdf:resource="http://purl.org/dc/dcmitype/StillImage" />
        <dc:title></dc:title>
      </cc:Work>
    </rdf:RDF>
  </metadata>
  <g
     inkscape:label="Layer 1"
     inkscape:groupmode="layer"
     id="layer1"
     transform="translate(-114.86702,-134.33372)">
    <g
       id="g13470"
       transform="matrix(0.35277777,0,0,-0.35277777,114.86696,142.3449)">
      <g
         id="g13472">
        <g
           id="g13474"
           clip-path="url(#clipPath13478)">
          <g
             id="g13480"
             transform="scale(0.1)">
            <path
               d="M 13.3945,125.938 H 631.605 v 0 c 9.872,7.875 13.825,21.046 9.915,33.054 -4.028,12.375 -15.801,20.68 -19.832,33.055 -3.907,12.004 0.042,25.18 9.917,33.051 H 13.3945 v 0 C 3.52344,217.227 -0.429688,204.051 3.48047,192.047 7.50781,179.672 19.2813,171.367 23.3125,158.992 c 3.9063,-12.008 -0.043,-25.179 -9.918,-33.054 v 0"
               style="fill:#ffffff;fill-opacity:1;fill-rule:nonzero;stroke:none"
               id="path13482" />
            <path
               d="M 13.3945,125.938 H 631.605 v 0 c 9.872,7.875 13.825,21.046 9.915,33.054 -4.028,12.375 -15.801,20.68 -19.832,33.055 -3.907,12.004 0.042,25.18 9.917,33.051 H 13.3945 v 0 C 3.52344,217.227 -0.429688,204.051 3.48047,192.047 7.50781,179.672 19.2813,171.367 23.3125,158.992 c 3.9063,-12.008 -0.043,-25.179 -9.918,-33.054 z"
               style="fill:none;stroke:#e0d4be;stroke-width:3.98121;stroke-linecap:butt;stroke-linejoin:miter;stroke-miterlimit:10;stroke-dasharray:none;stroke-opacity:1"
               id="path13484" />
            <path
               d="M 192.105,120.98 261.516,91.2344 V 1.99219 H 122.691 V 91.2344 l 69.414,29.7456"
               style="fill:#ffffff;fill-opacity:1;fill-rule:nonzero;stroke:none"
               id="path13486" />
            <path
               d="M 192.105,120.98 261.516,91.2344 V 1.99219 H 122.691 V 91.2344 Z"
               style="fill:none;stroke:#e0d4be;stroke-width:3.98121;stroke-linecap:butt;stroke-linejoin:miter;stroke-miterlimit:10;stroke-dasharray:none;stroke-opacity:1"
               id="path13488" />
            <g
               id="g13490"
               transform="scale(10)">
              <text
                 transform="matrix(1,0,0,-1,17.1602,15.1199)"
                 style="font-variant:normal;font-weight:normal;font-size:8.28887px;font-family:Inconsolatazi4;-inkscape-font-specification:Inconsolatazi4-Regular;writing-mode:lr-tb;fill:#000000;fill-opacity:1;fill-rule:nonzero;stroke:none"
                 id="text13494"><tspan
                   x="0 5.9999981 18.000002 23.880085 29.880083"
                   y="0"
                   sodipodi:role="line"
                   id="tspan13492">11111</tspan></text>
              <text
                 transform="matrix(1,0,0,-1,15.23989,2.6402)"
                 style="font-variant:normal;font-weight:normal;font-size:7.81068px;font-family:XCharter;-inkscape-font-specification:XCharter-Roman;writing-mode:lr-tb;fill:#000000;fill-opacity:1;fill-rule:nonzero;stroke:none"
                 id="text13498"><tspan
                   x="0"
                   y="0"
                   id="tspan13496">q</tspan></text>
              <text
                 transform="matrix(1,0,0,-1,19.43989,0.59997)"
                 style="font-variant:normal;font-weight:normal;font-size:6.05326px;font-family:XCharter;-inkscape-font-specification:XCharter-Roman;writing-mode:lr-tb;fill:#000000;fill-opacity:1;fill-rule:nonzero;stroke:none"
                 id="text13502"><tspan
                   x="0"
                   y="0"
                   id="tspan13500">0</tspan></text>
            </g>
          </g>
        </g>
      </g>
    </g>
  </g>
</svg>
