<?xml version="1.0" encoding="UTF-8" standalone="no"?>
<svg
   xmlns:dc="http://purl.org/dc/elements/1.1/"
   xmlns:cc="http://creativecommons.org/ns#"
   xmlns:rdf="http://www.w3.org/1999/02/22-rdf-syntax-ns#"
   xmlns:svg="http://www.w3.org/2000/svg"
   xmlns="http://www.w3.org/2000/svg"
   xmlns:sodipodi="http://sodipodi.sourceforge.net/DTD/sodipodi-0.dtd"
   xmlns:inkscape="http://www.inkscape.org/namespaces/inkscape"
   width="18.55595mm"
   height="8.0178366mm"
   viewBox="0 0 18.55595 8.0178366"
   version="1.1"
   id="svg12439"
   inkscape:version="1.0.2-2 (e86c870879, 2021-01-15)"
   sodipodi:docname="Modulo_X_111_q0.svg">
  <defs
     id="defs12433">
    <clipPath
       clipPathUnits="userSpaceOnUse"
       id="clipPath11677">
      <path
         d="M 0,0 H 52.61 V 22.73 H 0 Z"
         id="path11675" />
    </clipPath>
  </defs>
  <sodipodi:namedview
     id="base"
     pagecolor="#ffffff"
     bordercolor="#666666"
     borderopacity="1.0"
     inkscape:pageopacity="0.0"
     inkscape:pageshadow="2"
     inkscape:zoom="2.8"
     inkscape:cx="129.35208"
     inkscape:cy="95.15181"
     inkscape:document-units="mm"
     inkscape:current-layer="layer1"
     inkscape:document-rotation="0"
     showgrid="false"
     fit-margin-top="0"
     fit-margin-left="0"
     fit-margin-right="0"
     fit-margin-bottom="0"
     inkscape:window-width="2221"
     inkscape:window-height="1228"
     inkscape:window-x="0"
     inkscape:window-y="1620"
     inkscape:window-maximized="0" />
  <metadata
     id="metadata12436">
    <rdf:RDF>
      <cc:Work
         rdf:about="">
        <dc:format>image/svg+xml</dc:format>
        <dc:type
           rdf:resource="http://purl.org/dc/dcmitype/StillImage" />
        <dc:title></dc:title>
      </cc:Work>
    </rdf:RDF>
  </metadata>
  <g
     inkscape:label="Layer 1"
     inkscape:groupmode="layer"
     id="layer1"
     transform="translate(-71.608929,-122.99108)">
    <g
       id="g11669"
       transform="matrix(0.35277777,0,0,-0.35277777,71.608843,131.00892)">
      <g
         id="g11671">
        <g
           id="g11673"
           clip-path="url(#clipPath11677)">
          <g
             id="g11679"
             transform="scale(0.1)">
            <path
               d="M 13.4063,126.043 H 512.594 v 0 c 9.879,7.879 13.836,21.062 9.922,33.082 -4.032,12.383 -15.817,20.695 -19.848,33.078 -3.91,12.02 0.043,25.203 9.926,33.082 H 13.4063 v 0 C 3.52734,217.406 -0.429688,204.223 3.48438,192.203 7.51563,179.82 19.3008,171.508 23.332,159.125 c 3.9102,-12.02 -0.0429,-25.203 -9.9257,-33.082 v 0"
               style="fill:#ffffff;fill-opacity:1;fill-rule:nonzero;stroke:none"
               id="path11681" />
            <path
               d="M 13.4063,126.043 H 512.594 v 0 c 9.879,7.879 13.836,21.062 9.922,33.082 -4.032,12.383 -15.817,20.695 -19.848,33.078 -3.91,12.02 0.043,25.203 9.926,33.082 H 13.4063 v 0 C 3.52734,217.406 -0.429688,204.223 3.48438,192.203 7.51563,179.82 19.3008,171.508 23.332,159.125 c 3.9102,-12.02 -0.0429,-25.203 -9.9257,-33.082 z"
               style="fill:none;stroke:#e0d4be;stroke-width:3.98452;stroke-linecap:butt;stroke-linejoin:miter;stroke-miterlimit:10;stroke-dasharray:none;stroke-opacity:1"
               id="path11683" />
            <path
               d="M 192.262,121.082 261.73,91.3086 V 1.99219 H 122.797 V 91.3086 l 69.465,29.7734"
               style="fill:#ffffff;fill-opacity:1;fill-rule:nonzero;stroke:none"
               id="path11685" />
            <path
               d="M 192.262,121.082 261.73,91.3086 V 1.99219 H 122.797 V 91.3086 Z"
               style="fill:none;stroke:#e0d4be;stroke-width:3.98452;stroke-linecap:butt;stroke-linejoin:miter;stroke-miterlimit:10;stroke-dasharray:none;stroke-opacity:1"
               id="path11687" />
            <g
               id="g11689"
               transform="scale(10)">
              <text
                 transform="matrix(1,0,0,-1,17.1602,15.1199)"
                 style="font-variant:normal;font-weight:normal;font-size:8.28887px;font-family:Inconsolatazi4;-inkscape-font-specification:Inconsolatazi4-Regular;writing-mode:lr-tb;fill:#000000;fill-opacity:1;fill-rule:nonzero;stroke:none"
                 id="text11693"><tspan
                   x="0 5.9999981 11.999996"
                   y="0"
                   sodipodi:role="line"
                   id="tspan11691">111</tspan></text>
              <text
                 transform="matrix(1,0,0,-1,15.23989,2.6402)"
                 style="font-variant:normal;font-weight:normal;font-size:7.81068px;font-family:XCharter;-inkscape-font-specification:XCharter-Roman;writing-mode:lr-tb;fill:#000000;fill-opacity:1;fill-rule:nonzero;stroke:none"
                 id="text11697"><tspan
                   x="0"
                   y="0"
                   id="tspan11695">q</tspan></text>
              <text
                 transform="matrix(1,0,0,-1,19.43989,0.59997)"
                 style="font-variant:normal;font-weight:normal;font-size:6.05326px;font-family:XCharter;-inkscape-font-specification:XCharter-Roman;writing-mode:lr-tb;fill:#000000;fill-opacity:1;fill-rule:nonzero;stroke:none"
                 id="text11701"><tspan
                   x="0"
                   y="0"
                   id="tspan11699">0</tspan></text>
            </g>
          </g>
        </g>
      </g>
    </g>
  </g>
</svg>
