<?xml version="1.0" encoding="UTF-8"?>
<!DOCTYPE svg PUBLIC "-//W3C//DTD SVG 1.1//EN" "http://www.w3.org/Graphics/SVG/1.1/DTD/svg11.dtd">
<svg version="1.2" width="63.27mm" height="40.98mm" viewBox="7069 12480 6327 4098" preserveAspectRatio="xMidYMid" fill-rule="evenodd" stroke-width="28.222" stroke-linejoin="round" xmlns="http://www.w3.org/2000/svg" xmlns:ooo="http://xml.openoffice.org/svg/export" xmlns:xlink="http://www.w3.org/1999/xlink" xmlns:presentation="http://sun.com/xmlns/staroffice/presentation" xmlns:smil="http://www.w3.org/2001/SMIL20/" xmlns:anim="urn:oasis:names:tc:opendocument:xmlns:animation:1.0" xml:space="preserve">
 <defs class="EmbeddedBulletChars">
  <g id="bullet-char-template-57356" transform="scale(0.00048828125,-0.00048828125)">
   <path d="M 580,1141 L 1163,571 580,0 -4,571 580,1141 Z"/>
  </g>
  <g id="bullet-char-template-57354" transform="scale(0.00048828125,-0.00048828125)">
   <path d="M 8,1128 L 1137,1128 1137,0 8,0 8,1128 Z"/>
  </g>
  <g id="bullet-char-template-10146" transform="scale(0.00048828125,-0.00048828125)">
   <path d="M 174,0 L 602,739 174,1481 1456,739 174,0 Z M 1358,739 L 309,1346 659,739 1358,739 Z"/>
  </g>
  <g id="bullet-char-template-10132" transform="scale(0.00048828125,-0.00048828125)">
   <path d="M 2015,739 L 1276,0 717,0 1260,543 174,543 174,936 1260,936 717,1481 1274,1481 2015,739 Z"/>
  </g>
  <g id="bullet-char-template-10007" transform="scale(0.00048828125,-0.00048828125)">
   <path d="M 0,-2 C -7,14 -16,27 -25,37 L 356,567 C 262,823 215,952 215,954 215,979 228,992 255,992 264,992 276,990 289,987 310,991 331,999 354,1012 L 381,999 492,748 772,1049 836,1024 860,1049 C 881,1039 901,1025 922,1006 886,937 835,863 770,784 769,783 710,716 594,584 L 774,223 C 774,196 753,168 711,139 L 727,119 C 717,90 699,76 672,76 641,76 570,178 457,381 L 164,-76 C 142,-110 111,-127 72,-127 30,-127 9,-110 8,-76 1,-67 -2,-52 -2,-32 -2,-23 -1,-13 0,-2 Z"/>
  </g>
  <g id="bullet-char-template-10004" transform="scale(0.00048828125,-0.00048828125)">
   <path d="M 285,-33 C 182,-33 111,30 74,156 52,228 41,333 41,471 41,549 55,616 82,672 116,743 169,778 240,778 293,778 328,747 346,684 L 369,508 C 377,444 397,411 428,410 L 1163,1116 C 1174,1127 1196,1133 1229,1133 1271,1133 1292,1118 1292,1087 L 1292,965 C 1292,929 1282,901 1262,881 L 442,47 C 390,-6 338,-33 285,-33 Z"/>
  </g>
  <g id="bullet-char-template-9679" transform="scale(0.00048828125,-0.00048828125)">
   <path d="M 813,0 C 632,0 489,54 383,161 276,268 223,411 223,592 223,773 276,916 383,1023 489,1130 632,1184 813,1184 992,1184 1136,1130 1245,1023 1353,916 1407,772 1407,592 1407,412 1353,268 1245,161 1136,54 992,0 813,0 Z"/>
  </g>
  <g id="bullet-char-template-8226" transform="scale(0.00048828125,-0.00048828125)">
   <path d="M 346,457 C 273,457 209,483 155,535 101,586 74,649 74,723 74,796 101,859 155,911 209,963 273,989 346,989 419,989 480,963 531,910 582,859 608,796 608,723 608,648 583,586 532,535 482,483 420,457 346,457 Z"/>
  </g>
  <g id="bullet-char-template-8211" transform="scale(0.00048828125,-0.00048828125)">
   <path d="M -4,459 L 1135,459 1135,606 -4,606 -4,459 Z"/>
  </g>
  <g id="bullet-char-template-61548" transform="scale(0.00048828125,-0.00048828125)">
   <path d="M 173,740 C 173,903 231,1043 346,1159 462,1274 601,1332 765,1332 928,1332 1067,1274 1183,1159 1299,1043 1357,903 1357,740 1357,577 1299,437 1183,322 1067,206 928,148 765,148 601,148 462,206 346,322 231,437 173,577 173,740 Z"/>
  </g>
 </defs>
 <g class="Page">
  <g class="Group">
   <g class="com.sun.star.drawing.CustomShape">
    <g id="id3">
     <rect class="BoundingBox" stroke="none" fill="none" x="8691" y="14587" width="831" height="531"/>
     <path fill="none" stroke="rgb(255,255,255)" stroke-width="28" stroke-linejoin="round" d="M 9506,14852 C 9506,14896 9487,14940 9452,14978 9417,15016 9367,15047 9306,15069 9245,15091 9176,15103 9106,15103 9035,15103 8966,15091 8905,15069 8844,15047 8794,15016 8759,14978 8724,14940 8705,14896 8705,14852 8705,14809 8724,14765 8759,14727 8794,14689 8844,14658 8905,14636 8966,14614 9035,14602 9106,14602 9176,14602 9245,14614 9306,14636 9367,14658 9417,14689 9452,14727 9487,14765 9506,14809 9506,14852 Z"/>
    </g>
   </g>
   <g class="com.sun.star.drawing.CustomShape">
    <g id="id4">
     <rect class="BoundingBox" stroke="none" fill="none" x="10896" y="13591" width="830" height="531"/>
     <path fill="none" stroke="rgb(255,255,255)" stroke-width="28" stroke-linejoin="round" d="M 11711,13856 C 11711,13900 11692,13944 11657,13982 11622,14020 11572,14051 11511,14073 11450,14095 11381,14107 11311,14107 11240,14107 11171,14095 11110,14073 11049,14051 10999,14020 10964,13982 10929,13944 10910,13900 10910,13856 10910,13813 10929,13769 10964,13731 10999,13693 11049,13662 11110,13640 11171,13618 11240,13606 11311,13606 11381,13606 11450,13618 11511,13640 11572,13662 11622,13693 11657,13731 11692,13769 11711,13813 11711,13856 Z"/>
    </g>
   </g>
   <g class="com.sun.star.drawing.CustomShape">
    <g id="id5">
     <rect class="BoundingBox" stroke="none" fill="none" x="9797" y="14092" width="830" height="530"/>
     <path fill="none" stroke="rgb(255,255,255)" stroke-width="28" stroke-linejoin="round" d="M 10612,14357 C 10612,14400 10593,14444 10558,14482 10523,14520 10473,14551 10412,14573 10351,14595 10282,14607 10212,14607 10141,14607 10072,14595 10011,14573 9950,14551 9900,14520 9865,14482 9830,14444 9811,14400 9811,14357 9811,14313 9830,14269 9865,14231 9900,14193 9950,14162 10011,14140 10072,14118 10141,14106 10212,14106 10282,14106 10351,14118 10412,14140 10473,14162 10523,14193 10558,14231 10593,14269 10612,14313 10612,14357 Z"/>
    </g>
   </g>
   <g class="com.sun.star.drawing.CustomShape">
    <g id="id6">
     <rect class="BoundingBox" stroke="none" fill="none" x="8692" y="13588" width="830" height="531"/>
     <path fill="none" stroke="rgb(255,255,255)" stroke-width="28" stroke-linejoin="round" d="M 9507,13853 C 9507,13897 9488,13941 9453,13979 9418,14017 9368,14048 9307,14070 9246,14092 9177,14104 9107,14104 9036,14104 8967,14092 8906,14070 8845,14048 8795,14017 8760,13979 8725,13941 8706,13897 8706,13853 8706,13810 8725,13766 8760,13728 8795,13690 8845,13659 8906,13637 8967,13615 9036,13603 9107,13603 9177,13603 9246,13615 9307,13637 9368,13659 9418,13690 9453,13728 9488,13766 9507,13810 9507,13853 Z"/>
    </g>
   </g>
   <g class="Group">
    <g class="Graphic">
     <g id="id7">
      <rect class="BoundingBox" stroke="none" fill="none" x="7774" y="13158" width="5622" height="3420"/>
      <path fill="rgb(0,0,0)" stroke="none" d="M 7967,13490 L 7967,13477 7953,13477 C 7915,13477 7914,13472 7914,13457 L 7914,13220 C 7914,13210 7914,13209 7904,13209 7878,13236 7841,13236 7827,13236 L 7827,13249 C 7836,13249 7861,13249 7883,13238 L 7883,13457 C 7883,13472 7881,13477 7843,13477 L 7830,13477 7830,13490 C 7845,13489 7881,13489 7898,13489 7915,13489 7952,13489 7967,13490 L 7967,13490 Z"/>
      <path fill="rgb(0,0,0)" stroke="none" d="M 8188,13182 C 8188,13178 8185,13174 8180,13174 8176,13174 8173,13176 8172,13179 L 8025,13584 C 8024,13585 8024,13586 8024,13587 8024,13592 8028,13596 8033,13596 8037,13596 8040,13593 8041,13590 L 8188,13185 C 8188,13184 8188,13183 8188,13182 L 8188,13182 Z"/>
      <path fill="rgb(0,0,0)" stroke="none" d="M 8388,13490 L 8388,13477 8375,13477 C 8337,13477 8336,13472 8336,13457 L 8336,13220 C 8336,13210 8336,13209 8326,13209 8300,13236 8263,13236 8249,13236 L 8249,13249 C 8258,13249 8283,13249 8304,13238 L 8304,13457 C 8304,13472 8303,13477 8265,13477 L 8252,13477 8252,13490 C 8267,13489 8303,13489 8320,13489 8337,13489 8374,13489 8388,13490 L 8388,13490 Z"/>
      <path fill="rgb(0,0,0)" stroke="none" d="M 9034,13417 L 9023,13417 C 9021,13429 9018,13448 9014,13454 9011,13458 8983,13458 8974,13458 L 8898,13458 8943,13414 C 9008,13356 9034,13333 9034,13291 9034,13243 8996,13209 8944,13209 8897,13209 8865,13248 8865,13286 8865,13309 8887,13309 8888,13309 8895,13309 8910,13304 8910,13287 8910,13276 8902,13265 8887,13265 8884,13265 8883,13265 8882,13265 8892,13238 8914,13222 8939,13222 8977,13222 8995,13257 8995,13291 8995,13325 8974,13358 8951,13384 L 8870,13475 C 8865,13479 8865,13480 8865,13490 L 9022,13490 9034,13417 9034,13417 Z"/>
      <path fill="rgb(0,0,0)" stroke="none" d="M 9243,13182 C 9243,13178 9239,13174 9235,13174 9231,13174 9228,13176 9227,13179 L 9079,13584 C 9079,13585 9079,13586 9079,13587 9079,13592 9083,13596 9087,13596 9091,13596 9094,13593 9095,13590 L 9243,13185 C 9243,13184 9243,13183 9243,13182 L 9243,13182 Z"/>
      <path fill="rgb(0,0,0)" stroke="none" d="M 9443,13490 L 9443,13477 9429,13477 C 9391,13477 9390,13472 9390,13457 L 9390,13220 C 9390,13210 9390,13209 9380,13209 9354,13236 9317,13236 9304,13236 L 9304,13249 C 9312,13249 9337,13249 9359,13238 L 9359,13457 C 9359,13472 9358,13477 9320,13477 L 9306,13477 9306,13490 C 9321,13489 9358,13489 9375,13489 9391,13489 9428,13489 9443,13490 L 9443,13490 Z"/>
      <path fill="rgb(0,0,0)" stroke="none" d="M 10092,13418 C 10092,13383 10065,13351 10021,13342 10056,13330 10080,13301 10080,13267 10080,13233 10043,13209 10003,13209 9960,13209 9928,13235 9928,13267 9928,13281 9937,13289 9949,13289 9963,13289 9971,13279 9971,13267 9971,13246 9951,13246 9945,13246 9958,13225 9986,13220 10001,13220 10018,13220 10041,13229 10041,13267 10041,13272 10041,13297 10030,13315 10017,13335 10003,13337 9992,13337 9989,13338 9979,13338 9976,13338 9972,13339 9969,13339 9969,13343 9969,13348 9972,13348 9979,13348 L 9998,13348 C 10033,13348 10048,13377 10048,13418 10048,13475 10019,13488 10001,13488 9982,13488 9951,13480 9936,13456 9951,13458 9964,13448 9964,13432 9964,13417 9952,13409 9940,13409 9930,13409 9917,13415 9917,13433 9917,13472 9956,13499 10002,13499 10053,13499 10092,13461 10092,13418 L 10092,13418 Z"/>
      <path fill="rgb(0,0,0)" stroke="none" d="M 10297,13182 C 10297,13178 10294,13174 10289,13174 10285,13174 10282,13176 10281,13179 L 10134,13584 C 10133,13585 10133,13586 10133,13587 10133,13592 10137,13596 10142,13596 10146,13596 10149,13593 10150,13590 L 10297,13185 C 10297,13184 10297,13183 10297,13182 L 10297,13182 Z"/>
      <path fill="rgb(0,0,0)" stroke="none" d="M 10497,13490 L 10497,13477 10484,13477 C 10446,13477 10445,13472 10445,13457 L 10445,13220 C 10445,13210 10445,13209 10435,13209 10409,13236 10372,13236 10358,13236 L 10358,13249 C 10367,13249 10392,13249 10413,13238 L 10413,13457 C 10413,13472 10412,13477 10374,13477 L 10361,13477 10361,13490 C 10375,13489 10412,13489 10429,13489 10446,13489 10483,13489 10497,13490 L 10497,13490 Z"/>
      <path fill="rgb(0,0,0)" stroke="none" d="M 11152,13421 L 11152,13408 11110,13408 11110,13216 C 11110,13207 11110,13205 11103,13205 11099,13205 11098,13205 11095,13210 L 10965,13408 10965,13421 11077,13421 11077,13457 C 11077,13472 11077,13477 11045,13477 L 11036,13477 11036,13490 C 11054,13489 11076,13489 11093,13489 11111,13489 11133,13489 11151,13490 L 11151,13477 11142,13477 C 11111,13477 11110,13472 11110,13457 L 11110,13421 11152,13421 11152,13421 Z M 11080,13408 L 10977,13408 11080,13250 11080,13408 11080,13408 Z"/>
      <path fill="rgb(0,0,0)" stroke="none" d="M 11352,13182 C 11352,13178 11348,13174 11344,13174 11340,13174 11337,13176 11336,13179 L 11188,13584 C 11188,13585 11188,13586 11188,13587 11188,13592 11192,13596 11196,13596 11200,13596 11203,13593 11204,13590 L 11352,13185 C 11352,13184 11352,13183 11352,13182 L 11352,13182 Z"/>
      <path fill="rgb(0,0,0)" stroke="none" d="M 11552,13490 L 11552,13477 11538,13477 C 11500,13477 11499,13472 11499,13457 L 11499,13220 C 11499,13210 11499,13209 11489,13209 11463,13236 11426,13236 11413,13236 L 11413,13249 C 11421,13249 11446,13249 11468,13238 L 11468,13457 C 11468,13472 11467,13477 11429,13477 L 11415,13477 11415,13490 C 11430,13489 11467,13489 11484,13489 11500,13489 11537,13489 11552,13490 L 11552,13490 Z"/>
      <path fill="rgb(0,0,0)" stroke="none" d="M 12197,13405 C 12197,13355 12163,13313 12117,13313 12097,13313 12079,13320 12064,13335 L 12064,13252 C 12072,13255 12086,13258 12099,13258 12151,13258 12181,13219 12181,13214 12181,13211 12180,13209 12177,13209 12177,13209 12175,13209 12173,13211 12165,13214 12144,13223 12116,13223 12099,13223 12080,13220 12060,13211 12056,13210 12055,13210 12055,13210 12050,13210 12050,13213 12050,13220 L 12050,13345 C 12050,13352 12050,13356 12056,13356 12059,13356 12060,13354 12062,13352 12066,13345 12082,13322 12116,13322 12138,13322 12149,13342 12152,13349 12159,13365 12160,13381 12160,13402 12160,13417 12160,13443 12150,13460 12139,13477 12124,13488 12104,13488 12074,13488 12050,13465 12042,13440 12044,13441 12045,13441 12050,13441 12064,13441 12071,13431 12071,13421 12071,13410 12064,13400 12050,13400 12044,13400 12029,13403 12029,13422 12029,13459 12058,13499 12105,13499 12154,13499 12197,13459 12197,13405 L 12197,13405 Z"/>
      <path fill="rgb(0,0,0)" stroke="none" d="M 12406,13182 C 12406,13178 12403,13174 12398,13174 12394,13174 12391,13176 12390,13179 L 12243,13584 C 12242,13585 12242,13586 12242,13587 12242,13592 12246,13596 12251,13596 12255,13596 12258,13593 12259,13590 L 12406,13185 C 12406,13184 12406,13183 12406,13182 L 12406,13182 Z"/>
      <path fill="rgb(0,0,0)" stroke="none" d="M 12606,13490 L 12606,13477 12593,13477 C 12555,13477 12554,13472 12554,13457 L 12554,13220 C 12554,13210 12554,13209 12544,13209 12518,13236 12481,13236 12467,13236 L 12467,13249 C 12476,13249 12501,13249 12522,13238 L 12522,13457 C 12522,13472 12521,13477 12483,13477 L 12470,13477 12470,13490 C 12484,13489 12521,13489 12538,13489 12555,13489 12592,13489 12606,13490 L 12606,13490 Z"/>
      <path fill="rgb(0,0,0)" stroke="none" d="M 13144,13468 C 13144,13456 13134,13445 13121,13445 13109,13445 13099,13456 13099,13468 13099,13480 13109,13490 13121,13490 13134,13490 13144,13480 13144,13468 L 13144,13468 Z M 13261,13468 C 13261,13456 13251,13445 13239,13445 13227,13445 13217,13456 13217,13468 13217,13480 13227,13490 13239,13490 13251,13490 13261,13480 13261,13468 L 13261,13468 Z M 13379,13468 C 13379,13456 13369,13445 13357,13445 13345,13445 13334,13456 13334,13468 13334,13480 13345,13490 13357,13490 13369,13490 13379,13480 13379,13468 L 13379,13468 Z"/>
      <path fill="rgb(0,0,0)" stroke="none" d="M 7967,13996 L 7967,13983 7953,13983 C 7915,13983 7914,13979 7914,13963 L 7914,13726 C 7914,13716 7914,13715 7904,13715 7878,13742 7841,13742 7827,13742 L 7827,13755 C 7836,13755 7861,13755 7883,13744 L 7883,13963 C 7883,13978 7881,13983 7843,13983 L 7830,13983 7830,13996 C 7845,13995 7881,13995 7898,13995 7915,13995 7952,13995 7967,13996 L 7967,13996 Z"/>
      <path fill="rgb(0,0,0)" stroke="none" d="M 8188,13688 C 8188,13684 8185,13680 8180,13680 8176,13680 8173,13682 8172,13685 L 8025,14090 C 8024,14091 8024,14092 8024,14093 8024,14098 8028,14102 8033,14102 8037,14102 8040,14100 8041,14096 L 8188,13691 C 8188,13690 8188,13689 8188,13688 L 8188,13688 Z"/>
      <path fill="rgb(0,0,0)" stroke="none" d="M 8401,13923 L 8391,13923 C 8388,13935 8385,13954 8381,13960 8378,13964 8350,13964 8341,13964 L 8265,13964 8310,13920 C 8376,13862 8401,13839 8401,13797 8401,13749 8363,13715 8312,13715 8264,13715 8233,13754 8233,13792 8233,13815 8254,13815 8255,13815 8262,13815 8277,13810 8277,13793 8277,13782 8269,13771 8255,13771 8251,13771 8250,13771 8249,13771 8259,13744 8282,13728 8306,13728 8345,13728 8363,13763 8363,13797 8363,13831 8342,13864 8318,13890 L 8237,13981 C 8233,13985 8233,13986 8233,13996 L 8389,13996 8401,13923 8401,13923 Z"/>
      <path fill="rgb(0,0,0)" stroke="none" d="M 9034,13923 L 9023,13923 C 9021,13935 9018,13954 9014,13960 9011,13964 8983,13964 8974,13964 L 8898,13964 8943,13920 C 9008,13862 9034,13839 9034,13797 9034,13749 8996,13715 8944,13715 8897,13715 8865,13754 8865,13792 8865,13815 8887,13815 8888,13815 8895,13815 8910,13810 8910,13793 8910,13782 8902,13771 8887,13771 8884,13771 8883,13771 8882,13771 8892,13744 8914,13728 8939,13728 8977,13728 8995,13763 8995,13797 8995,13831 8974,13864 8951,13890 L 8870,13981 C 8865,13985 8865,13986 8865,13996 L 9022,13996 9034,13923 9034,13923 Z"/>
      <path fill="rgb(0,0,0)" stroke="none" d="M 9243,13688 C 9243,13684 9239,13680 9235,13680 9231,13680 9228,13682 9227,13685 L 9079,14090 C 9079,14091 9079,14092 9079,14093 9079,14098 9083,14102 9087,14102 9091,14102 9094,14100 9095,14096 L 9243,13691 C 9243,13690 9243,13689 9243,13688 L 9243,13688 Z"/>
      <path fill="rgb(0,0,0)" stroke="none" d="M 9456,13923 L 9445,13923 C 9443,13935 9440,13954 9436,13960 9433,13964 9405,13964 9396,13964 L 9320,13964 9364,13920 C 9430,13862 9456,13839 9456,13797 9456,13749 9418,13715 9366,13715 9318,13715 9287,13754 9287,13792 9287,13815 9308,13815 9310,13815 9317,13815 9332,13810 9332,13793 9332,13782 9324,13771 9309,13771 9306,13771 9305,13771 9304,13771 9313,13744 9336,13728 9361,13728 9399,13728 9417,13763 9417,13797 9417,13831 9396,13864 9373,13890 L 9292,13981 C 9287,13985 9287,13986 9287,13996 L 9444,13996 9456,13923 9456,13923 Z"/>
      <path fill="rgb(0,0,0)" stroke="none" d="M 10092,13924 C 10092,13890 10065,13857 10021,13848 10056,13836 10080,13807 10080,13774 10080,13739 10043,13715 10003,13715 9960,13715 9928,13741 9928,13773 9928,13787 9937,13795 9949,13795 9963,13795 9971,13785 9971,13773 9971,13752 9951,13752 9945,13752 9958,13731 9986,13726 10001,13726 10018,13726 10041,13735 10041,13773 10041,13778 10041,13803 10030,13821 10017,13841 10003,13843 9992,13843 9989,13844 9979,13844 9976,13844 9972,13845 9969,13845 9969,13849 9969,13854 9972,13854 9979,13854 L 9998,13854 C 10033,13854 10048,13883 10048,13924 10048,13981 10019,13994 10001,13994 9982,13994 9951,13987 9936,13962 9951,13964 9964,13954 9964,13938 9964,13923 9952,13915 9940,13915 9930,13915 9917,13921 9917,13939 9917,13978 9956,14006 10002,14006 10053,14006 10092,13967 10092,13924 L 10092,13924 Z"/>
      <path fill="rgb(0,0,0)" stroke="none" d="M 10297,13688 C 10297,13684 10294,13680 10289,13680 10285,13680 10282,13682 10281,13685 L 10134,14090 C 10133,14091 10133,14092 10133,14093 10133,14098 10137,14102 10142,14102 10146,14102 10149,14100 10150,14096 L 10297,13691 C 10297,13690 10297,13689 10297,13688 L 10297,13688 Z"/>
      <path fill="rgb(0,0,0)" stroke="none" d="M 10510,13923 L 10500,13923 C 10497,13935 10494,13954 10490,13960 10487,13964 10459,13964 10450,13964 L 10374,13964 10419,13920 C 10485,13862 10510,13839 10510,13797 10510,13749 10472,13715 10421,13715 10373,13715 10342,13754 10342,13792 10342,13815 10363,13815 10364,13815 10371,13815 10386,13810 10386,13793 10386,13782 10378,13771 10364,13771 10360,13771 10359,13771 10358,13771 10368,13744 10391,13728 10415,13728 10454,13728 10472,13763 10472,13797 10472,13831 10451,13864 10427,13890 L 10346,13981 C 10342,13985 10342,13986 10342,13996 L 10498,13996 10510,13923 10510,13923 Z"/>
      <path fill="rgb(0,0,0)" stroke="none" d="M 11152,13927 L 11152,13914 11110,13914 11110,13722 C 11110,13713 11110,13711 11103,13711 11099,13711 11098,13711 11095,13716 L 10965,13914 10965,13927 11077,13927 11077,13963 C 11077,13979 11077,13983 11045,13983 L 11036,13983 11036,13996 C 11054,13995 11076,13995 11093,13995 11111,13995 11133,13995 11151,13996 L 11151,13983 11142,13983 C 11111,13983 11110,13979 11110,13963 L 11110,13927 11152,13927 11152,13927 Z M 11080,13914 L 10977,13914 11080,13756 11080,13914 11080,13914 Z"/>
      <path fill="rgb(0,0,0)" stroke="none" d="M 11352,13688 C 11352,13684 11348,13680 11344,13680 11340,13680 11337,13682 11336,13685 L 11188,14090 C 11188,14091 11188,14092 11188,14093 11188,14098 11192,14102 11196,14102 11200,14102 11203,14100 11204,14096 L 11352,13691 C 11352,13690 11352,13689 11352,13688 L 11352,13688 Z"/>
      <path fill="rgb(0,0,0)" stroke="none" d="M 11565,13923 L 11554,13923 C 11552,13935 11549,13954 11545,13960 11542,13964 11514,13964 11505,13964 L 11429,13964 11473,13920 C 11539,13862 11565,13839 11565,13797 11565,13749 11527,13715 11475,13715 11427,13715 11396,13754 11396,13792 11396,13815 11417,13815 11419,13815 11426,13815 11441,13810 11441,13793 11441,13782 11433,13771 11418,13771 11415,13771 11414,13771 11413,13771 11422,13744 11445,13728 11470,13728 11508,13728 11526,13763 11526,13797 11526,13831 11505,13864 11482,13890 L 11401,13981 C 11396,13985 11396,13986 11396,13996 L 11553,13996 11565,13923 11565,13923 Z"/>
      <path fill="rgb(0,0,0)" stroke="none" d="M 12197,13911 C 12197,13861 12163,13819 12117,13819 12097,13819 12079,13826 12064,13841 L 12064,13758 C 12072,13761 12086,13764 12099,13764 12151,13764 12181,13725 12181,13720 12181,13717 12180,13715 12177,13715 12177,13715 12175,13715 12173,13717 12165,13720 12144,13729 12116,13729 12099,13729 12080,13726 12060,13717 12056,13716 12055,13716 12055,13716 12050,13716 12050,13719 12050,13726 L 12050,13851 C 12050,13858 12050,13862 12056,13862 12059,13862 12060,13860 12062,13858 12066,13851 12082,13828 12116,13828 12138,13828 12149,13848 12152,13855 12159,13871 12160,13887 12160,13909 12160,13923 12160,13949 12150,13966 12139,13983 12124,13994 12104,13994 12074,13994 12050,13971 12042,13946 12044,13947 12045,13947 12050,13947 12064,13947 12071,13937 12071,13927 12071,13917 12064,13906 12050,13906 12044,13906 12029,13909 12029,13928 12029,13965 12058,14006 12105,14006 12154,14006 12197,13965 12197,13911 L 12197,13911 Z"/>
      <path fill="rgb(0,0,0)" stroke="none" d="M 12406,13688 C 12406,13684 12403,13680 12398,13680 12394,13680 12391,13682 12390,13685 L 12243,14090 C 12242,14091 12242,14092 12242,14093 12242,14098 12246,14102 12251,14102 12255,14102 12258,14100 12259,14096 L 12406,13691 C 12406,13690 12406,13689 12406,13688 L 12406,13688 Z"/>
      <path fill="rgb(0,0,0)" stroke="none" d="M 12619,13923 L 12608,13923 C 12606,13935 12603,13954 12599,13960 12596,13964 12568,13964 12559,13964 L 12483,13964 12528,13920 C 12594,13862 12619,13839 12619,13797 12619,13749 12581,13715 12530,13715 12482,13715 12451,13754 12451,13792 12451,13815 12472,13815 12473,13815 12480,13815 12495,13810 12495,13793 12495,13782 12487,13771 12473,13771 12469,13771 12468,13771 12467,13771 12477,13744 12500,13728 12524,13728 12563,13728 12581,13763 12581,13797 12581,13831 12560,13864 12536,13890 L 12455,13981 C 12451,13985 12451,13986 12451,13996 L 12607,13996 12619,13923 12619,13923 Z"/>
      <path fill="rgb(0,0,0)" stroke="none" d="M 13144,13974 C 13144,13962 13134,13952 13121,13952 13109,13952 13099,13962 13099,13974 13099,13986 13109,13996 13121,13996 13134,13996 13144,13986 13144,13974 L 13144,13974 Z M 13261,13974 C 13261,13962 13251,13952 13239,13952 13227,13952 13217,13962 13217,13974 13217,13986 13227,13996 13239,13996 13251,13996 13261,13986 13261,13974 L 13261,13974 Z M 13379,13974 C 13379,13962 13369,13952 13357,13952 13345,13952 13334,13962 13334,13974 13334,13986 13345,13996 13357,13996 13369,13996 13379,13986 13379,13974 L 13379,13974 Z"/>
      <path fill="rgb(0,0,0)" stroke="none" d="M 7967,14502 L 7967,14489 7953,14489 C 7915,14489 7914,14485 7914,14469 L 7914,14232 C 7914,14222 7914,14221 7904,14221 7878,14248 7841,14248 7827,14248 L 7827,14261 C 7836,14261 7861,14261 7883,14251 L 7883,14469 C 7883,14484 7881,14489 7843,14489 L 7830,14489 7830,14502 C 7845,14501 7881,14501 7898,14501 7915,14501 7952,14501 7967,14502 L 7967,14502 Z"/>
      <path fill="rgb(0,0,0)" stroke="none" d="M 8188,14194 C 8188,14190 8185,14186 8180,14186 8176,14186 8173,14188 8172,14191 L 8025,14596 C 8024,14597 8024,14598 8024,14599 8024,14604 8028,14608 8033,14608 8037,14608 8040,14606 8041,14602 L 8188,14197 C 8188,14197 8188,14195 8188,14194 L 8188,14194 Z"/>
      <path fill="rgb(0,0,0)" stroke="none" d="M 8404,14430 C 8404,14396 8378,14363 8334,14354 8369,14342 8393,14313 8393,14280 8393,14245 8356,14221 8315,14221 8273,14221 8241,14247 8241,14279 8241,14293 8250,14301 8262,14301 8275,14301 8284,14291 8284,14279 8284,14258 8264,14258 8258,14258 8271,14237 8299,14232 8314,14232 8331,14232 8354,14241 8354,14279 8354,14284 8353,14309 8342,14327 8330,14348 8315,14349 8305,14349 8302,14350 8291,14350 8288,14350 8285,14351 8282,14351 8282,14356 8282,14360 8285,14360 8292,14360 L 8311,14360 C 8345,14360 8361,14389 8361,14430 8361,14488 8332,14500 8313,14500 8295,14500 8264,14493 8249,14468 8264,14470 8277,14461 8277,14445 8277,14429 8265,14421 8253,14421 8243,14421 8229,14427 8229,14445 8229,14484 8269,14512 8315,14512 8366,14512 8404,14473 8404,14430 L 8404,14430 Z"/>
      <path fill="rgb(0,0,0)" stroke="none" d="M 9034,14429 L 9023,14429 C 9021,14442 9018,14460 9014,14466 9011,14470 8983,14470 8974,14470 L 8898,14470 8943,14426 C 9008,14368 9034,14345 9034,14303 9034,14255 8996,14221 8944,14221 8897,14221 8865,14260 8865,14298 8865,14321 8887,14321 8888,14321 8895,14321 8910,14316 8910,14299 8910,14288 8902,14277 8887,14277 8884,14277 8883,14277 8882,14278 8892,14250 8914,14234 8939,14234 8977,14234 8995,14269 8995,14303 8995,14337 8974,14370 8951,14396 L 8870,14487 C 8865,14491 8865,14492 8865,14502 L 9022,14502 9034,14429 9034,14429 Z"/>
      <path fill="rgb(0,0,0)" stroke="none" d="M 9243,14194 C 9243,14190 9239,14186 9235,14186 9231,14186 9228,14188 9227,14191 L 9079,14596 C 9079,14597 9079,14598 9079,14599 9079,14604 9083,14608 9087,14608 9091,14608 9094,14606 9095,14602 L 9243,14197 C 9243,14197 9243,14195 9243,14194 L 9243,14194 Z"/>
      <path fill="rgb(0,0,0)" stroke="none" d="M 9459,14430 C 9459,14396 9432,14363 9388,14354 9423,14342 9448,14313 9448,14280 9448,14245 9410,14221 9370,14221 9327,14221 9295,14247 9295,14279 9295,14293 9305,14301 9317,14301 9330,14301 9338,14291 9338,14279 9338,14258 9318,14258 9312,14258 9325,14237 9353,14232 9368,14232 9386,14232 9409,14241 9409,14279 9409,14284 9408,14309 9397,14327 9384,14348 9370,14349 9359,14349 9356,14350 9346,14350 9343,14350 9340,14351 9337,14351 9337,14356 9337,14360 9340,14360 9347,14360 L 9365,14360 C 9400,14360 9415,14389 9415,14430 9415,14488 9386,14500 9368,14500 9350,14500 9318,14493 9303,14468 9318,14470 9331,14461 9331,14445 9331,14429 9320,14421 9308,14421 9297,14421 9284,14427 9284,14445 9284,14484 9323,14512 9369,14512 9421,14512 9459,14473 9459,14430 L 9459,14430 Z"/>
      <path fill="rgb(0,0,0)" stroke="none" d="M 10092,14430 C 10092,14396 10065,14363 10021,14354 10056,14342 10080,14313 10080,14280 10080,14245 10043,14221 10003,14221 9960,14221 9928,14247 9928,14279 9928,14293 9937,14301 9949,14301 9963,14301 9971,14291 9971,14279 9971,14258 9951,14258 9945,14258 9958,14237 9986,14232 10001,14232 10018,14232 10041,14241 10041,14279 10041,14284 10041,14309 10030,14327 10017,14348 10003,14349 9992,14349 9989,14350 9979,14350 9976,14350 9972,14351 9969,14351 9969,14356 9969,14360 9972,14360 9979,14360 L 9998,14360 C 10033,14360 10048,14389 10048,14430 10048,14488 10019,14500 10001,14500 9982,14500 9951,14493 9936,14468 9951,14470 9964,14461 9964,14445 9964,14429 9952,14421 9940,14421 9930,14421 9917,14427 9917,14445 9917,14484 9956,14512 10002,14512 10053,14512 10092,14473 10092,14430 L 10092,14430 Z"/>
      <path fill="rgb(0,0,0)" stroke="none" d="M 10297,14194 C 10297,14190 10294,14186 10289,14186 10285,14186 10282,14188 10281,14191 L 10134,14596 C 10133,14597 10133,14598 10133,14599 10133,14604 10137,14608 10142,14608 10146,14608 10149,14606 10150,14602 L 10297,14197 C 10297,14197 10297,14195 10297,14194 L 10297,14194 Z"/>
      <path fill="rgb(0,0,0)" stroke="none" d="M 10513,14430 C 10513,14396 10487,14363 10443,14354 10478,14342 10502,14313 10502,14280 10502,14245 10465,14221 10424,14221 10382,14221 10350,14247 10350,14279 10350,14293 10359,14301 10371,14301 10384,14301 10393,14291 10393,14279 10393,14258 10373,14258 10367,14258 10380,14237 10408,14232 10423,14232 10440,14232 10463,14241 10463,14279 10463,14284 10462,14309 10451,14327 10439,14348 10424,14349 10414,14349 10411,14350 10400,14350 10397,14350 10394,14351 10391,14351 10391,14356 10391,14360 10394,14360 10401,14360 L 10420,14360 C 10454,14360 10470,14389 10470,14430 10470,14488 10441,14500 10422,14500 10404,14500 10373,14493 10358,14468 10373,14470 10386,14461 10386,14445 10386,14429 10374,14421 10362,14421 10352,14421 10338,14427 10338,14445 10338,14484 10378,14512 10424,14512 10475,14512 10513,14473 10513,14430 L 10513,14430 Z"/>
      <path fill="rgb(0,0,0)" stroke="none" d="M 11152,14433 L 11152,14420 11110,14420 11110,14228 C 11110,14219 11110,14217 11103,14217 11099,14217 11098,14217 11095,14222 L 10965,14420 10965,14433 11077,14433 11077,14469 C 11077,14485 11077,14489 11045,14489 L 11036,14489 11036,14502 C 11054,14501 11076,14501 11093,14501 11111,14501 11133,14501 11151,14502 L 11151,14489 11142,14489 C 11111,14489 11110,14485 11110,14469 L 11110,14433 11152,14433 11152,14433 Z M 11080,14420 L 10977,14420 11080,14262 11080,14420 11080,14420 Z"/>
      <path fill="rgb(0,0,0)" stroke="none" d="M 11352,14194 C 11352,14190 11348,14186 11344,14186 11340,14186 11337,14188 11336,14191 L 11188,14596 C 11188,14597 11188,14598 11188,14599 11188,14604 11192,14608 11196,14608 11200,14608 11203,14606 11204,14602 L 11352,14197 C 11352,14197 11352,14195 11352,14194 L 11352,14194 Z"/>
      <path fill="rgb(0,0,0)" stroke="none" d="M 11568,14430 C 11568,14396 11541,14363 11497,14354 11532,14342 11557,14313 11557,14280 11557,14245 11519,14221 11479,14221 11436,14221 11404,14247 11404,14279 11404,14293 11414,14301 11426,14301 11439,14301 11447,14291 11447,14279 11447,14258 11427,14258 11421,14258 11434,14237 11462,14232 11477,14232 11495,14232 11518,14241 11518,14279 11518,14284 11517,14309 11506,14327 11493,14348 11479,14349 11468,14349 11465,14350 11455,14350 11452,14350 11449,14351 11446,14351 11446,14356 11446,14360 11449,14360 11456,14360 L 11474,14360 C 11509,14360 11524,14389 11524,14430 11524,14488 11495,14500 11477,14500 11459,14500 11427,14493 11412,14468 11427,14470 11440,14461 11440,14445 11440,14429 11429,14421 11416,14421 11406,14421 11393,14427 11393,14445 11393,14484 11432,14512 11478,14512 11530,14512 11568,14473 11568,14430 L 11568,14430 Z"/>
      <path fill="rgb(0,0,0)" stroke="none" d="M 12197,14418 C 12197,14367 12163,14325 12117,14325 12097,14325 12079,14332 12064,14347 L 12064,14264 C 12072,14267 12086,14270 12099,14270 12151,14270 12181,14232 12181,14226 12181,14224 12180,14221 12177,14221 12177,14221 12175,14221 12173,14223 12165,14226 12144,14235 12116,14235 12099,14235 12080,14232 12060,14223 12056,14222 12055,14222 12055,14222 12050,14222 12050,14225 12050,14232 L 12050,14357 C 12050,14364 12050,14368 12056,14368 12059,14368 12060,14366 12062,14364 12066,14357 12082,14334 12116,14334 12138,14334 12149,14354 12152,14361 12159,14377 12160,14393 12160,14415 12160,14429 12160,14455 12150,14472 12139,14489 12124,14500 12104,14500 12074,14500 12050,14477 12042,14453 12044,14453 12045,14453 12050,14453 12064,14453 12071,14443 12071,14433 12071,14423 12064,14412 12050,14412 12044,14412 12029,14415 12029,14434 12029,14471 12058,14512 12105,14512 12154,14512 12197,14471 12197,14418 L 12197,14418 Z"/>
      <path fill="rgb(0,0,0)" stroke="none" d="M 12406,14194 C 12406,14190 12403,14186 12398,14186 12394,14186 12391,14188 12390,14191 L 12243,14596 C 12242,14597 12242,14598 12242,14599 12242,14604 12246,14608 12251,14608 12255,14608 12258,14606 12259,14602 L 12406,14197 C 12406,14197 12406,14195 12406,14194 L 12406,14194 Z"/>
      <path fill="rgb(0,0,0)" stroke="none" d="M 12622,14430 C 12622,14396 12596,14363 12552,14354 12587,14342 12611,14313 12611,14280 12611,14245 12574,14221 12533,14221 12491,14221 12459,14247 12459,14279 12459,14293 12468,14301 12480,14301 12493,14301 12502,14291 12502,14279 12502,14258 12482,14258 12476,14258 12489,14237 12517,14232 12532,14232 12549,14232 12572,14241 12572,14279 12572,14284 12571,14309 12560,14327 12548,14348 12533,14349 12523,14349 12519,14350 12509,14350 12506,14350 12503,14351 12500,14351 12500,14356 12500,14360 12503,14360 12510,14360 L 12529,14360 C 12563,14360 12579,14389 12579,14430 12579,14488 12550,14500 12531,14500 12513,14500 12482,14493 12467,14468 12482,14470 12495,14461 12495,14445 12495,14429 12483,14421 12471,14421 12461,14421 12447,14427 12447,14445 12447,14484 12487,14512 12533,14512 12584,14512 12622,14473 12622,14430 L 12622,14430 Z"/>
      <path fill="rgb(0,0,0)" stroke="none" d="M 13144,14480 C 13144,14468 13134,14458 13121,14458 13109,14458 13099,14468 13099,14480 13099,14492 13109,14502 13121,14502 13134,14502 13144,14492 13144,14480 L 13144,14480 Z M 13261,14480 C 13261,14468 13251,14458 13239,14458 13227,14458 13217,14468 13217,14480 13217,14492 13227,14502 13239,14502 13251,14502 13261,14492 13261,14480 L 13261,14480 Z M 13379,14480 C 13379,14468 13369,14458 13357,14458 13345,14458 13334,14468 13334,14480 13334,14492 13345,14502 13357,14502 13369,14502 13379,14492 13379,14480 L 13379,14480 Z"/>
      <path fill="rgb(0,0,0)" stroke="none" d="M 7967,15008 L 7967,14995 7953,14995 C 7915,14995 7914,14991 7914,14975 L 7914,14738 C 7914,14728 7914,14727 7904,14727 7878,14754 7841,14754 7827,14754 L 7827,14768 C 7836,14768 7861,14768 7883,14757 L 7883,14975 C 7883,14990 7881,14995 7843,14995 L 7830,14995 7830,15008 C 7845,15007 7881,15007 7898,15007 7915,15007 7952,15007 7967,15008 L 7967,15008 Z"/>
      <path fill="rgb(0,0,0)" stroke="none" d="M 8188,14700 C 8188,14696 8185,14692 8180,14692 8176,14692 8173,14694 8172,14698 L 8025,15102 C 8024,15103 8024,15105 8024,15105 8024,15110 8028,15114 8033,15114 8037,15114 8040,15112 8041,15108 L 8188,14703 C 8188,14703 8188,14701 8188,14700 L 8188,14700 Z"/>
      <path fill="rgb(0,0,0)" stroke="none" d="M 8410,14939 L 8410,14926 8368,14926 8368,14734 C 8368,14725 8368,14723 8361,14723 8358,14723 8356,14723 8353,14728 L 8223,14926 8223,14939 8336,14939 8336,14975 C 8336,14991 8335,14995 8304,14995 L 8295,14995 8295,15008 C 8312,15007 8334,15007 8352,15007 8369,15007 8392,15007 8409,15008 L 8409,14995 8400,14995 C 8369,14995 8368,14991 8368,14975 L 8368,14939 8410,14939 8410,14939 Z M 8338,14926 L 8235,14926 8338,14768 8338,14926 8338,14926 Z"/>
      <path fill="rgb(0,0,0)" stroke="none" d="M 9034,14935 L 9023,14935 C 9021,14948 9018,14966 9014,14973 9011,14976 8983,14976 8974,14976 L 8898,14976 8943,14932 C 9008,14874 9034,14851 9034,14809 9034,14761 8996,14727 8944,14727 8897,14727 8865,14766 8865,14804 8865,14827 8887,14827 8888,14827 8895,14827 8910,14822 8910,14805 8910,14794 8902,14783 8887,14783 8884,14783 8883,14783 8882,14784 8892,14756 8914,14741 8939,14741 8977,14741 8995,14775 8995,14809 8995,14843 8974,14876 8951,14903 L 8870,14993 C 8865,14997 8865,14998 8865,15008 L 9022,15008 9034,14935 9034,14935 Z"/>
      <path fill="rgb(0,0,0)" stroke="none" d="M 9243,14700 C 9243,14696 9239,14692 9235,14692 9231,14692 9228,14694 9227,14698 L 9079,15102 C 9079,15103 9079,15105 9079,15105 9079,15110 9083,15114 9087,15114 9091,15114 9094,15112 9095,15108 L 9243,14703 C 9243,14703 9243,14701 9243,14700 L 9243,14700 Z"/>
      <path fill="rgb(0,0,0)" stroke="none" d="M 9465,14939 L 9465,14926 9423,14926 9423,14734 C 9423,14725 9423,14723 9416,14723 9412,14723 9411,14723 9407,14728 L 9278,14926 9278,14939 9390,14939 9390,14975 C 9390,14991 9389,14995 9358,14995 L 9349,14995 9349,15008 C 9367,15007 9388,15007 9406,15007 9424,15007 9446,15007 9464,15008 L 9464,14995 9455,14995 C 9424,14995 9423,14991 9423,14975 L 9423,14939 9465,14939 9465,14939 Z M 9393,14926 L 9290,14926 9393,14768 9393,14926 9393,14926 Z"/>
      <path fill="rgb(0,0,0)" stroke="none" d="M 10092,14936 C 10092,14902 10065,14869 10021,14860 10056,14849 10080,14819 10080,14786 10080,14751 10043,14727 10003,14727 9960,14727 9928,14753 9928,14785 9928,14799 9937,14807 9949,14807 9963,14807 9971,14797 9971,14785 9971,14764 9951,14764 9945,14764 9958,14744 9986,14738 10001,14738 10018,14738 10041,14747 10041,14785 10041,14790 10041,14815 10030,14833 10017,14854 10003,14855 9992,14855 9989,14856 9979,14857 9976,14857 9972,14857 9969,14857 9969,14862 9969,14866 9972,14866 9979,14866 L 9998,14866 C 10033,14866 10048,14895 10048,14936 10048,14994 10019,15006 10001,15006 9982,15006 9951,14999 9936,14974 9951,14976 9964,14967 9964,14951 9964,14935 9952,14927 9940,14927 9930,14927 9917,14933 9917,14951 9917,14990 9956,15018 10002,15018 10053,15018 10092,14979 10092,14936 L 10092,14936 Z"/>
      <path fill="rgb(0,0,0)" stroke="none" d="M 10297,14700 C 10297,14696 10294,14692 10289,14692 10285,14692 10282,14694 10281,14698 L 10134,15102 C 10133,15103 10133,15105 10133,15105 10133,15110 10137,15114 10142,15114 10146,15114 10149,15112 10150,15108 L 10297,14703 C 10297,14703 10297,14701 10297,14700 L 10297,14700 Z"/>
      <path fill="rgb(0,0,0)" stroke="none" d="M 10519,14939 L 10519,14926 10477,14926 10477,14734 C 10477,14725 10477,14723 10470,14723 10467,14723 10465,14723 10462,14728 L 10332,14926 10332,14939 10445,14939 10445,14975 C 10445,14991 10444,14995 10413,14995 L 10404,14995 10404,15008 C 10421,15007 10443,15007 10461,15007 10478,15007 10501,15007 10518,15008 L 10518,14995 10509,14995 C 10478,14995 10477,14991 10477,14975 L 10477,14939 10519,14939 10519,14939 Z M 10447,14926 L 10344,14926 10447,14768 10447,14926 10447,14926 Z"/>
      <path fill="rgb(0,0,0)" stroke="none" d="M 11152,14939 L 11152,14926 11110,14926 11110,14734 C 11110,14725 11110,14723 11103,14723 11099,14723 11098,14723 11095,14728 L 10965,14926 10965,14939 11077,14939 11077,14975 C 11077,14991 11077,14995 11045,14995 L 11036,14995 11036,15008 C 11054,15007 11076,15007 11093,15007 11111,15007 11133,15007 11151,15008 L 11151,14995 11142,14995 C 11111,14995 11110,14991 11110,14975 L 11110,14939 11152,14939 11152,14939 Z M 11080,14926 L 10977,14926 11080,14768 11080,14926 11080,14926 Z"/>
      <path fill="rgb(0,0,0)" stroke="none" d="M 11352,14700 C 11352,14696 11348,14692 11344,14692 11340,14692 11337,14694 11336,14698 L 11188,15102 C 11188,15103 11188,15105 11188,15105 11188,15110 11192,15114 11196,15114 11200,15114 11203,15112 11204,15108 L 11352,14703 C 11352,14703 11352,14701 11352,14700 L 11352,14700 Z"/>
      <path fill="rgb(0,0,0)" stroke="none" d="M 11574,14939 L 11574,14926 11532,14926 11532,14734 C 11532,14725 11532,14723 11525,14723 11521,14723 11520,14723 11516,14728 L 11387,14926 11387,14939 11499,14939 11499,14975 C 11499,14991 11498,14995 11467,14995 L 11458,14995 11458,15008 C 11476,15007 11497,15007 11515,15007 11533,15007 11555,15007 11573,15008 L 11573,14995 11564,14995 C 11532,14995 11532,14991 11532,14975 L 11532,14939 11574,14939 11574,14939 Z M 11502,14926 L 11399,14926 11502,14768 11502,14926 11502,14926 Z"/>
      <path fill="rgb(0,0,0)" stroke="none" d="M 12197,14924 C 12197,14873 12163,14831 12117,14831 12097,14831 12079,14838 12064,14853 L 12064,14771 C 12072,14773 12086,14776 12099,14776 12151,14776 12181,14738 12181,14732 12181,14730 12180,14727 12177,14727 12177,14727 12175,14727 12173,14729 12165,14733 12144,14741 12116,14741 12099,14741 12080,14738 12060,14729 12056,14728 12055,14728 12055,14728 12050,14728 12050,14731 12050,14738 L 12050,14863 C 12050,14870 12050,14874 12056,14874 12059,14874 12060,14873 12062,14870 12066,14863 12082,14841 12116,14841 12138,14841 12149,14860 12152,14867 12159,14883 12160,14900 12160,14921 12160,14935 12160,14961 12150,14978 12139,14995 12124,15006 12104,15006 12074,15006 12050,14983 12042,14959 12044,14959 12045,14959 12050,14959 12064,14959 12071,14949 12071,14939 12071,14929 12064,14918 12050,14918 12044,14918 12029,14921 12029,14940 12029,14977 12058,15018 12105,15018 12154,15018 12197,14977 12197,14924 L 12197,14924 Z"/>
      <path fill="rgb(0,0,0)" stroke="none" d="M 12406,14700 C 12406,14696 12403,14692 12398,14692 12394,14692 12391,14694 12390,14698 L 12243,15102 C 12242,15103 12242,15105 12242,15105 12242,15110 12246,15114 12251,15114 12255,15114 12258,15112 12259,15108 L 12406,14703 C 12406,14703 12406,14701 12406,14700 L 12406,14700 Z"/>
      <path fill="rgb(0,0,0)" stroke="none" d="M 12628,14939 L 12628,14926 12586,14926 12586,14734 C 12586,14725 12586,14723 12579,14723 12576,14723 12574,14723 12571,14728 L 12441,14926 12441,14939 12554,14939 12554,14975 C 12554,14991 12553,14995 12522,14995 L 12513,14995 12513,15008 C 12530,15007 12552,15007 12570,15007 12587,15007 12610,15007 12627,15008 L 12627,14995 12618,14995 C 12587,14995 12586,14991 12586,14975 L 12586,14939 12628,14939 12628,14939 Z M 12556,14926 L 12453,14926 12556,14768 12556,14926 12556,14926 Z"/>
      <path fill="rgb(0,0,0)" stroke="none" d="M 13144,14986 C 13144,14974 13134,14964 13121,14964 13109,14964 13099,14974 13099,14986 13099,14998 13109,15008 13121,15008 13134,15008 13144,14998 13144,14986 L 13144,14986 Z M 13261,14986 C 13261,14974 13251,14964 13239,14964 13227,14964 13217,14974 13217,14986 13217,14998 13227,15008 13239,15008 13251,15008 13261,14998 13261,14986 L 13261,14986 Z M 13379,14986 C 13379,14974 13369,14964 13357,14964 13345,14964 13334,14974 13334,14986 13334,14998 13345,15008 13357,15008 13369,15008 13379,14998 13379,14986 L 13379,14986 Z"/>
      <path fill="rgb(0,0,0)" stroke="none" d="M 7967,15514 L 7967,15501 7953,15501 C 7915,15501 7914,15497 7914,15481 L 7914,15245 C 7914,15234 7914,15234 7904,15234 7878,15261 7841,15261 7827,15261 L 7827,15274 C 7836,15274 7861,15274 7883,15263 L 7883,15481 C 7883,15496 7881,15501 7843,15501 L 7830,15501 7830,15514 C 7845,15513 7881,15513 7898,15513 7915,15513 7952,15513 7967,15514 L 7967,15514 Z"/>
      <path fill="rgb(0,0,0)" stroke="none" d="M 8188,15207 C 8188,15202 8185,15198 8180,15198 8176,15198 8173,15200 8172,15204 L 8025,15608 C 8024,15609 8024,15611 8024,15611 8024,15616 8028,15620 8033,15620 8037,15620 8040,15618 8041,15614 L 8188,15210 C 8188,15209 8188,15207 8188,15207 L 8188,15207 Z"/>
      <path fill="rgb(0,0,0)" stroke="none" d="M 8401,15430 C 8401,15379 8366,15337 8321,15337 8301,15337 8283,15344 8267,15359 L 8267,15277 C 8276,15279 8290,15282 8303,15282 8355,15282 8385,15244 8385,15238 8385,15236 8383,15234 8380,15234 8380,15234 8379,15234 8377,15235 8369,15239 8348,15247 8320,15247 8303,15247 8283,15244 8264,15235 8260,15234 8258,15234 8258,15234 8254,15234 8254,15237 8254,15244 L 8254,15369 C 8254,15377 8254,15380 8260,15380 8263,15380 8264,15379 8266,15376 8270,15369 8286,15347 8320,15347 8342,15347 8353,15366 8356,15374 8363,15389 8364,15406 8364,15427 8364,15441 8364,15467 8353,15484 8343,15501 8328,15512 8308,15512 8277,15512 8253,15490 8246,15465 8248,15465 8249,15465 8253,15465 8267,15465 8275,15455 8275,15445 8275,15435 8267,15424 8253,15424 8248,15424 8233,15427 8233,15447 8233,15483 8262,15524 8309,15524 8358,15524 8401,15483 8401,15430 L 8401,15430 Z"/>
      <path fill="rgb(0,0,0)" stroke="none" d="M 9034,15441 L 9023,15441 C 9021,15454 9018,15472 9014,15479 9011,15482 8983,15482 8974,15482 L 8898,15482 8943,15439 C 9008,15380 9034,15358 9034,15315 9034,15267 8996,15234 8944,15234 8897,15234 8865,15272 8865,15310 8865,15334 8887,15334 8888,15334 8895,15334 8910,15328 8910,15311 8910,15300 8902,15289 8887,15289 8884,15289 8883,15289 8882,15290 8892,15262 8914,15247 8939,15247 8977,15247 8995,15281 8995,15315 8995,15349 8974,15382 8951,15409 L 8870,15499 C 8865,15503 8865,15504 8865,15514 L 9022,15514 9034,15441 9034,15441 Z"/>
      <path fill="rgb(0,0,0)" stroke="none" d="M 9243,15207 C 9243,15202 9239,15198 9235,15198 9231,15198 9228,15200 9227,15204 L 9079,15608 C 9079,15609 9079,15611 9079,15611 9079,15616 9083,15620 9087,15620 9091,15620 9094,15618 9095,15614 L 9243,15210 C 9243,15209 9243,15207 9243,15207 L 9243,15207 Z"/>
      <path fill="rgb(0,0,0)" stroke="none" d="M 9456,15430 C 9456,15379 9421,15337 9375,15337 9355,15337 9337,15344 9322,15359 L 9322,15277 C 9330,15279 9344,15282 9358,15282 9410,15282 9439,15244 9439,15238 9439,15236 9438,15234 9435,15234 9435,15234 9434,15234 9432,15235 9423,15239 9402,15247 9374,15247 9357,15247 9338,15244 9318,15235 9315,15234 9313,15234 9313,15234 9309,15234 9309,15237 9309,15244 L 9309,15369 C 9309,15377 9309,15380 9315,15380 9318,15380 9318,15379 9320,15376 9325,15369 9340,15347 9375,15347 9397,15347 9407,15366 9410,15374 9417,15389 9418,15406 9418,15427 9418,15441 9418,15467 9408,15484 9398,15501 9382,15512 9363,15512 9332,15512 9308,15490 9301,15465 9302,15465 9303,15465 9308,15465 9322,15465 9329,15455 9329,15445 9329,15435 9322,15424 9308,15424 9302,15424 9287,15427 9287,15447 9287,15483 9316,15524 9364,15524 9413,15524 9456,15483 9456,15430 L 9456,15430 Z"/>
      <path fill="rgb(0,0,0)" stroke="none" d="M 10092,15442 C 10092,15408 10065,15375 10021,15366 10056,15355 10080,15325 10080,15292 10080,15257 10043,15234 10003,15234 9960,15234 9928,15259 9928,15291 9928,15305 9937,15313 9949,15313 9963,15313 9971,15304 9971,15291 9971,15270 9951,15270 9945,15270 9958,15250 9986,15244 10001,15244 10018,15244 10041,15253 10041,15291 10041,15296 10041,15321 10030,15339 10017,15360 10003,15361 9992,15361 9989,15362 9979,15363 9976,15363 9972,15363 9969,15363 9969,15368 9969,15372 9972,15372 9979,15372 L 9998,15372 C 10033,15372 10048,15401 10048,15442 10048,15500 10019,15512 10001,15512 9982,15512 9951,15505 9936,15480 9951,15482 9964,15473 9964,15457 9964,15441 9952,15433 9940,15433 9930,15433 9917,15439 9917,15457 9917,15496 9956,15524 10002,15524 10053,15524 10092,15485 10092,15442 L 10092,15442 Z"/>
      <path fill="rgb(0,0,0)" stroke="none" d="M 10297,15207 C 10297,15202 10294,15198 10289,15198 10285,15198 10282,15200 10281,15204 L 10134,15608 C 10133,15609 10133,15611 10133,15611 10133,15616 10137,15620 10142,15620 10146,15620 10149,15618 10150,15614 L 10297,15210 C 10297,15209 10297,15207 10297,15207 L 10297,15207 Z"/>
      <path fill="rgb(0,0,0)" stroke="none" d="M 10510,15430 C 10510,15379 10475,15337 10430,15337 10410,15337 10392,15344 10376,15359 L 10376,15277 C 10385,15279 10399,15282 10412,15282 10464,15282 10494,15244 10494,15238 10494,15236 10492,15234 10489,15234 10489,15234 10488,15234 10486,15235 10478,15239 10457,15247 10429,15247 10412,15247 10392,15244 10373,15235 10369,15234 10367,15234 10367,15234 10363,15234 10363,15237 10363,15244 L 10363,15369 C 10363,15377 10363,15380 10369,15380 10372,15380 10373,15379 10375,15376 10379,15369 10395,15347 10429,15347 10451,15347 10462,15366 10465,15374 10472,15389 10473,15406 10473,15427 10473,15441 10473,15467 10462,15484 10452,15501 10437,15512 10417,15512 10386,15512 10362,15490 10355,15465 10357,15465 10358,15465 10362,15465 10376,15465 10384,15455 10384,15445 10384,15435 10376,15424 10362,15424 10357,15424 10342,15427 10342,15447 10342,15483 10371,15524 10418,15524 10467,15524 10510,15483 10510,15430 L 10510,15430 Z"/>
      <path fill="rgb(0,0,0)" stroke="none" d="M 11152,15445 L 11152,15432 11110,15432 11110,15240 C 11110,15231 11110,15229 11103,15229 11099,15229 11098,15229 11095,15234 L 10965,15432 10965,15445 11077,15445 11077,15482 C 11077,15497 11077,15501 11045,15501 L 11036,15501 11036,15514 C 11054,15513 11076,15513 11093,15513 11111,15513 11133,15513 11151,15514 L 11151,15501 11142,15501 C 11111,15501 11110,15497 11110,15482 L 11110,15445 11152,15445 11152,15445 Z M 11080,15432 L 10977,15432 11080,15274 11080,15432 11080,15432 Z"/>
      <path fill="rgb(0,0,0)" stroke="none" d="M 11352,15207 C 11352,15202 11348,15198 11344,15198 11340,15198 11337,15200 11336,15204 L 11188,15608 C 11188,15609 11188,15611 11188,15611 11188,15616 11192,15620 11196,15620 11200,15620 11203,15618 11204,15614 L 11352,15210 C 11352,15209 11352,15207 11352,15207 L 11352,15207 Z"/>
      <path fill="rgb(0,0,0)" stroke="none" d="M 11565,15430 C 11565,15379 11530,15337 11484,15337 11464,15337 11446,15344 11431,15359 L 11431,15277 C 11439,15279 11453,15282 11467,15282 11519,15282 11548,15244 11548,15238 11548,15236 11547,15234 11544,15234 11544,15234 11543,15234 11541,15235 11532,15239 11511,15247 11483,15247 11466,15247 11447,15244 11427,15235 11424,15234 11422,15234 11422,15234 11418,15234 11418,15237 11418,15244 L 11418,15369 C 11418,15377 11418,15380 11424,15380 11427,15380 11427,15379 11429,15376 11434,15369 11449,15347 11484,15347 11505,15347 11516,15366 11519,15374 11526,15389 11527,15406 11527,15427 11527,15441 11527,15467 11517,15484 11507,15501 11491,15512 11472,15512 11441,15512 11417,15490 11410,15465 11411,15465 11412,15465 11417,15465 11431,15465 11438,15455 11438,15445 11438,15435 11431,15424 11417,15424 11411,15424 11396,15427 11396,15447 11396,15483 11425,15524 11473,15524 11522,15524 11565,15483 11565,15430 L 11565,15430 Z"/>
      <path fill="rgb(0,0,0)" stroke="none" d="M 12197,15430 C 12197,15379 12163,15337 12117,15337 12097,15337 12079,15344 12064,15359 L 12064,15277 C 12072,15279 12086,15282 12099,15282 12151,15282 12181,15244 12181,15238 12181,15236 12180,15234 12177,15234 12177,15234 12175,15234 12173,15235 12165,15239 12144,15247 12116,15247 12099,15247 12080,15244 12060,15235 12056,15234 12055,15234 12055,15234 12050,15234 12050,15237 12050,15244 L 12050,15369 C 12050,15377 12050,15380 12056,15380 12059,15380 12060,15379 12062,15376 12066,15369 12082,15347 12116,15347 12138,15347 12149,15366 12152,15374 12159,15389 12160,15406 12160,15427 12160,15441 12160,15467 12150,15484 12139,15501 12124,15512 12104,15512 12074,15512 12050,15490 12042,15465 12044,15465 12045,15465 12050,15465 12064,15465 12071,15455 12071,15445 12071,15435 12064,15424 12050,15424 12044,15424 12029,15427 12029,15447 12029,15483 12058,15524 12105,15524 12154,15524 12197,15483 12197,15430 L 12197,15430 Z"/>
      <path fill="rgb(0,0,0)" stroke="none" d="M 12406,15207 C 12406,15202 12403,15198 12398,15198 12394,15198 12391,15200 12390,15204 L 12243,15608 C 12242,15609 12242,15611 12242,15611 12242,15616 12246,15620 12251,15620 12255,15620 12258,15618 12259,15614 L 12406,15210 C 12406,15209 12406,15207 12406,15207 L 12406,15207 Z"/>
      <path fill="rgb(0,0,0)" stroke="none" d="M 12619,15430 C 12619,15379 12584,15337 12539,15337 12519,15337 12501,15344 12485,15359 L 12485,15277 C 12494,15279 12508,15282 12521,15282 12573,15282 12603,15244 12603,15238 12603,15236 12601,15234 12598,15234 12598,15234 12597,15234 12595,15235 12587,15239 12566,15247 12538,15247 12521,15247 12501,15244 12482,15235 12478,15234 12476,15234 12476,15234 12472,15234 12472,15237 12472,15244 L 12472,15369 C 12472,15377 12472,15380 12478,15380 12481,15380 12482,15379 12484,15376 12488,15369 12504,15347 12538,15347 12560,15347 12571,15366 12574,15374 12581,15389 12582,15406 12582,15427 12582,15441 12582,15467 12571,15484 12561,15501 12546,15512 12526,15512 12495,15512 12471,15490 12464,15465 12466,15465 12467,15465 12471,15465 12485,15465 12493,15455 12493,15445 12493,15435 12485,15424 12471,15424 12466,15424 12451,15427 12451,15447 12451,15483 12480,15524 12527,15524 12576,15524 12619,15483 12619,15430 L 12619,15430 Z"/>
      <path fill="rgb(0,0,0)" stroke="none" d="M 13144,15492 C 13144,15480 13134,15470 13121,15470 13109,15470 13099,15480 13099,15492 13099,15504 13109,15514 13121,15514 13134,15514 13144,15504 13144,15492 L 13144,15492 Z M 13261,15492 C 13261,15480 13251,15470 13239,15470 13227,15470 13217,15480 13217,15492 13217,15504 13227,15514 13239,15514 13251,15514 13261,15504 13261,15492 L 13261,15492 Z M 13379,15492 C 13379,15480 13369,15470 13357,15470 13345,15470 13334,15480 13334,15492 13334,15504 13345,15514 13357,15514 13369,15514 13379,15504 13379,15492 L 13379,15492 Z"/>
      <path fill="rgb(0,0,0)" stroke="none" d="M 7967,16020 L 7967,16007 7953,16007 C 7915,16007 7914,16003 7914,15987 L 7914,15751 C 7914,15740 7914,15740 7904,15740 7878,15767 7841,15767 7827,15767 L 7827,15780 C 7836,15780 7861,15780 7883,15769 L 7883,15987 C 7883,16002 7881,16007 7843,16007 L 7830,16007 7830,16020 C 7845,16019 7881,16019 7898,16019 7915,16019 7952,16019 7967,16020 L 7967,16020 Z"/>
      <path fill="rgb(0,0,0)" stroke="none" d="M 8188,15713 C 8188,15708 8185,15704 8180,15704 8176,15704 8173,15706 8172,15710 L 8025,16115 C 8024,16115 8024,16117 8024,16117 8024,16122 8028,16126 8033,16126 8037,16126 8040,16124 8041,16120 L 8188,15716 C 8188,15715 8188,15713 8188,15713 L 8188,15713 Z"/>
      <path fill="rgb(0,0,0)" stroke="none" d="M 8404,15934 C 8404,15881 8367,15840 8320,15840 8291,15840 8276,15862 8267,15882 L 8267,15872 C 8267,15765 8320,15750 8341,15750 8351,15750 8369,15753 8378,15767 8372,15767 8355,15767 8355,15786 8355,15799 8365,15805 8374,15805 8381,15805 8394,15802 8394,15785 8394,15760 8375,15740 8340,15740 8286,15740 8229,15794 8229,15887 8229,16000 8278,16030 8318,16030 8364,16030 8404,15990 8404,15934 L 8404,15934 Z M 8366,15934 C 8366,15954 8366,15975 8359,15991 8347,16016 8327,16018 8318,16018 8291,16018 8278,15993 8276,15986 8268,15967 8268,15933 8268,15925 8268,15892 8282,15850 8320,15850 8326,15850 8346,15850 8359,15876 8366,15892 8366,15913 8366,15934 L 8366,15934 Z"/>
      <path fill="rgb(0,0,0)" stroke="none" d="M 9034,15947 L 9023,15947 C 9021,15960 9018,15978 9014,15985 9011,15988 8983,15988 8974,15988 L 8898,15988 8943,15945 C 9008,15886 9034,15864 9034,15821 9034,15773 8996,15740 8944,15740 8897,15740 8865,15778 8865,15816 8865,15840 8887,15840 8888,15840 8895,15840 8910,15835 8910,15817 8910,15806 8902,15795 8887,15795 8884,15795 8883,15795 8882,15796 8892,15768 8914,15753 8939,15753 8977,15753 8995,15787 8995,15821 8995,15855 8974,15888 8951,15915 L 8870,16005 C 8865,16010 8865,16010 8865,16020 L 9022,16020 9034,15947 9034,15947 Z"/>
      <path fill="rgb(0,0,0)" stroke="none" d="M 9243,15713 C 9243,15708 9239,15704 9235,15704 9231,15704 9228,15706 9227,15710 L 9079,16115 C 9079,16115 9079,16117 9079,16117 9079,16122 9083,16126 9087,16126 9091,16126 9094,16124 9095,16120 L 9243,15716 C 9243,15715 9243,15713 9243,15713 L 9243,15713 Z"/>
      <path fill="rgb(0,0,0)" stroke="none" d="M 9459,15934 C 9459,15881 9421,15840 9375,15840 9346,15840 9330,15862 9322,15882 L 9322,15872 C 9322,15765 9374,15750 9396,15750 9406,15750 9424,15753 9433,15767 9426,15767 9410,15767 9410,15786 9410,15799 9420,15805 9429,15805 9436,15805 9448,15802 9448,15785 9448,15760 9430,15740 9395,15740 9341,15740 9284,15794 9284,15887 9284,16000 9333,16030 9372,16030 9419,16030 9459,15990 9459,15934 L 9459,15934 Z M 9421,15934 C 9421,15954 9421,15975 9414,15991 9401,16016 9382,16018 9372,16018 9345,16018 9333,15993 9330,15986 9323,15967 9323,15933 9323,15925 9323,15892 9336,15850 9374,15850 9381,15850 9400,15850 9413,15876 9421,15892 9421,15913 9421,15934 L 9421,15934 Z"/>
      <path fill="rgb(0,0,0)" stroke="none" d="M 10092,15948 C 10092,15914 10065,15881 10021,15872 10056,15861 10080,15831 10080,15798 10080,15763 10043,15740 10003,15740 9960,15740 9928,15765 9928,15797 9928,15811 9937,15819 9949,15819 9963,15819 9971,15810 9971,15797 9971,15776 9951,15776 9945,15776 9958,15756 9986,15750 10001,15750 10018,15750 10041,15759 10041,15797 10041,15802 10041,15827 10030,15845 10017,15866 10003,15867 9992,15867 9989,15868 9979,15869 9976,15869 9972,15869 9969,15870 9969,15874 9969,15878 9972,15878 9979,15878 L 9998,15878 C 10033,15878 10048,15907 10048,15948 10048,16006 10019,16018 10001,16018 9982,16018 9951,16011 9936,15986 9951,15988 9964,15979 9964,15963 9964,15948 9952,15939 9940,15939 9930,15939 9917,15945 9917,15964 9917,16002 9956,16030 10002,16030 10053,16030 10092,15991 10092,15948 L 10092,15948 Z"/>
      <path fill="rgb(0,0,0)" stroke="none" d="M 10297,15713 C 10297,15708 10294,15704 10289,15704 10285,15704 10282,15706 10281,15710 L 10134,16115 C 10133,16115 10133,16117 10133,16117 10133,16122 10137,16126 10142,16126 10146,16126 10149,16124 10150,16120 L 10297,15716 C 10297,15715 10297,15713 10297,15713 L 10297,15713 Z"/>
      <path fill="rgb(0,0,0)" stroke="none" d="M 10513,15934 C 10513,15881 10476,15840 10429,15840 10400,15840 10385,15862 10376,15882 L 10376,15872 C 10376,15765 10429,15750 10450,15750 10460,15750 10478,15753 10487,15767 10481,15767 10464,15767 10464,15786 10464,15799 10474,15805 10483,15805 10490,15805 10503,15802 10503,15785 10503,15760 10484,15740 10449,15740 10395,15740 10338,15794 10338,15887 10338,16000 10387,16030 10427,16030 10473,16030 10513,15990 10513,15934 L 10513,15934 Z M 10475,15934 C 10475,15954 10475,15975 10468,15991 10456,16016 10436,16018 10427,16018 10400,16018 10387,15993 10385,15986 10377,15967 10377,15933 10377,15925 10377,15892 10391,15850 10429,15850 10435,15850 10455,15850 10468,15876 10475,15892 10475,15913 10475,15934 L 10475,15934 Z"/>
      <path fill="rgb(0,0,0)" stroke="none" d="M 11152,15951 L 11152,15938 11110,15938 11110,15746 C 11110,15738 11110,15735 11103,15735 11099,15735 11098,15735 11095,15740 L 10965,15938 10965,15951 11077,15951 11077,15988 C 11077,16003 11077,16007 11045,16007 L 11036,16007 11036,16020 C 11054,16019 11076,16019 11093,16019 11111,16019 11133,16019 11151,16020 L 11151,16007 11142,16007 C 11111,16007 11110,16003 11110,15988 L 11110,15951 11152,15951 11152,15951 Z M 11080,15938 L 10977,15938 11080,15781 11080,15938 11080,15938 Z"/>
      <path fill="rgb(0,0,0)" stroke="none" d="M 11352,15713 C 11352,15708 11348,15704 11344,15704 11340,15704 11337,15706 11336,15710 L 11188,16115 C 11188,16115 11188,16117 11188,16117 11188,16122 11192,16126 11196,16126 11200,16126 11203,16124 11204,16120 L 11352,15716 C 11352,15715 11352,15713 11352,15713 L 11352,15713 Z"/>
      <path fill="rgb(0,0,0)" stroke="none" d="M 11568,15934 C 11568,15881 11530,15840 11484,15840 11455,15840 11439,15862 11431,15882 L 11431,15872 C 11431,15765 11483,15750 11505,15750 11515,15750 11532,15753 11542,15767 11535,15767 11519,15767 11519,15786 11519,15799 11529,15805 11538,15805 11545,15805 11557,15802 11557,15785 11557,15760 11539,15740 11504,15740 11450,15740 11393,15794 11393,15887 11393,16000 11442,16030 11481,16030 11528,16030 11568,15990 11568,15934 L 11568,15934 Z M 11530,15934 C 11530,15954 11530,15975 11523,15991 11510,16016 11491,16018 11481,16018 11454,16018 11442,15993 11439,15986 11432,15967 11432,15933 11432,15925 11432,15892 11445,15850 11483,15850 11490,15850 11509,15850 11522,15876 11530,15892 11530,15913 11530,15934 L 11530,15934 Z"/>
      <path fill="rgb(0,0,0)" stroke="none" d="M 12197,15936 C 12197,15886 12163,15843 12117,15843 12097,15843 12079,15850 12064,15865 L 12064,15783 C 12072,15785 12086,15788 12099,15788 12151,15788 12181,15750 12181,15744 12181,15742 12180,15740 12177,15740 12177,15740 12175,15740 12173,15741 12165,15745 12144,15753 12116,15753 12099,15753 12080,15750 12060,15741 12056,15740 12055,15740 12055,15740 12050,15740 12050,15743 12050,15750 L 12050,15875 C 12050,15883 12050,15886 12056,15886 12059,15886 12060,15885 12062,15882 12066,15875 12082,15853 12116,15853 12138,15853 12149,15872 12152,15880 12159,15895 12160,15912 12160,15933 12160,15948 12160,15973 12150,15991 12139,16007 12124,16018 12104,16018 12074,16018 12050,15996 12042,15971 12044,15971 12045,15972 12050,15972 12064,15972 12071,15961 12071,15951 12071,15941 12064,15930 12050,15930 12044,15930 12029,15933 12029,15953 12029,15989 12058,16030 12105,16030 12154,16030 12197,15989 12197,15936 L 12197,15936 Z"/>
      <path fill="rgb(0,0,0)" stroke="none" d="M 12406,15713 C 12406,15708 12403,15704 12398,15704 12394,15704 12391,15706 12390,15710 L 12243,16115 C 12242,16115 12242,16117 12242,16117 12242,16122 12246,16126 12251,16126 12255,16126 12258,16124 12259,16120 L 12406,15716 C 12406,15715 12406,15713 12406,15713 L 12406,15713 Z"/>
      <path fill="rgb(0,0,0)" stroke="none" d="M 12622,15934 C 12622,15881 12585,15840 12538,15840 12509,15840 12494,15862 12485,15882 L 12485,15872 C 12485,15765 12538,15750 12559,15750 12569,15750 12587,15753 12596,15767 12590,15767 12573,15767 12573,15786 12573,15799 12583,15805 12592,15805 12599,15805 12612,15802 12612,15785 12612,15760 12593,15740 12558,15740 12504,15740 12447,15794 12447,15887 12447,16000 12496,16030 12536,16030 12582,16030 12622,15990 12622,15934 L 12622,15934 Z M 12584,15934 C 12584,15954 12584,15975 12577,15991 12565,16016 12545,16018 12536,16018 12509,16018 12496,15993 12494,15986 12486,15967 12486,15933 12486,15925 12486,15892 12500,15850 12538,15850 12544,15850 12564,15850 12577,15876 12584,15892 12584,15913 12584,15934 L 12584,15934 Z"/>
      <path fill="rgb(0,0,0)" stroke="none" d="M 13144,15998 C 13144,15986 13134,15976 13121,15976 13109,15976 13099,15986 13099,15998 13099,16010 13109,16020 13121,16020 13134,16020 13144,16010 13144,15998 L 13144,15998 Z M 13261,15998 C 13261,15986 13251,15976 13239,15976 13227,15976 13217,15986 13217,15998 13217,16010 13227,16020 13239,16020 13251,16020 13261,16010 13261,15998 L 13261,15998 Z M 13379,15998 C 13379,15986 13369,15976 13357,15976 13345,15976 13334,15986 13334,15998 13334,16010 13345,16020 13357,16020 13369,16020 13379,16010 13379,15998 L 13379,15998 Z"/>
      <path fill="rgb(0,0,0)" stroke="none" d="M 8129,16539 C 8129,16527 8118,16516 8106,16516 8094,16516 8084,16527 8084,16539 8084,16551 8094,16561 8106,16561 8118,16561 8129,16551 8129,16539 L 8129,16539 Z M 8129,16421 C 8129,16409 8118,16399 8106,16399 8094,16399 8084,16409 8084,16421 8084,16433 8094,16443 8106,16443 8118,16443 8129,16433 8129,16421 L 8129,16421 Z M 8129,16303 C 8129,16291 8118,16281 8106,16281 8094,16281 8084,16291 8084,16303 8084,16316 8094,16326 8106,16326 8118,16326 8129,16316 8129,16303 L 8129,16303 Z"/>
      <path fill="rgb(0,0,0)" stroke="none" d="M 9183,16539 C 9183,16527 9173,16516 9161,16516 9148,16516 9138,16527 9138,16539 9138,16551 9148,16561 9161,16561 9173,16561 9183,16551 9183,16539 L 9183,16539 Z M 9183,16421 C 9183,16409 9173,16399 9161,16399 9148,16399 9138,16409 9138,16421 9138,16433 9148,16443 9161,16443 9173,16443 9183,16433 9183,16421 L 9183,16421 Z M 9183,16303 C 9183,16291 9173,16281 9161,16281 9148,16281 9138,16291 9138,16303 9138,16316 9148,16326 9161,16326 9173,16326 9183,16316 9183,16303 L 9183,16303 Z"/>
      <path fill="rgb(0,0,0)" stroke="none" d="M 10238,16539 C 10238,16527 10227,16516 10215,16516 10203,16516 10193,16527 10193,16539 10193,16551 10203,16561 10215,16561 10227,16561 10238,16551 10238,16539 L 10238,16539 Z M 10238,16421 C 10238,16409 10227,16399 10215,16399 10203,16399 10193,16409 10193,16421 10193,16433 10203,16443 10215,16443 10227,16443 10238,16433 10238,16421 L 10238,16421 Z M 10238,16303 C 10238,16291 10227,16281 10215,16281 10203,16281 10193,16291 10193,16303 10193,16316 10203,16326 10215,16326 10227,16326 10238,16316 10238,16303 L 10238,16303 Z"/>
      <path fill="rgb(0,0,0)" stroke="none" d="M 11292,16539 C 11292,16527 11282,16516 11270,16516 11257,16516 11247,16527 11247,16539 11247,16551 11257,16561 11270,16561 11282,16561 11292,16551 11292,16539 L 11292,16539 Z M 11292,16421 C 11292,16409 11282,16399 11270,16399 11257,16399 11247,16409 11247,16421 11247,16433 11257,16443 11270,16443 11282,16443 11292,16433 11292,16421 L 11292,16421 Z M 11292,16303 C 11292,16291 11282,16281 11270,16281 11257,16281 11247,16291 11247,16303 11247,16316 11257,16326 11270,16326 11282,16326 11292,16316 11292,16303 L 11292,16303 Z"/>
      <path fill="rgb(0,0,0)" stroke="none" d="M 12347,16539 C 12347,16527 12336,16516 12324,16516 12312,16516 12302,16527 12302,16539 12302,16551 12312,16561 12324,16561 12336,16561 12347,16551 12347,16539 L 12347,16539 Z M 12347,16421 C 12347,16409 12336,16399 12324,16399 12312,16399 12302,16409 12302,16421 12302,16433 12312,16443 12324,16443 12336,16443 12347,16433 12347,16421 L 12347,16421 Z M 12347,16303 C 12347,16291 12336,16281 12324,16281 12312,16281 12302,16291 12302,16303 12302,16316 12312,16326 12324,16326 12336,16326 12347,16316 12347,16303 L 12347,16303 Z"/>
      <path fill="rgb(0,0,0)" stroke="none" d="M 13261,16539 C 13261,16527 13251,16516 13239,16516 13227,16516 13217,16527 13217,16539 13217,16551 13227,16561 13239,16561 13251,16561 13261,16551 13261,16539 L 13261,16539 Z M 13261,16421 C 13261,16409 13251,16399 13239,16399 13227,16399 13217,16409 13217,16421 13217,16433 13227,16443 13239,16443 13251,16443 13261,16433 13261,16421 L 13261,16421 Z M 13261,16303 C 13261,16291 13251,16281 13239,16281 13227,16281 13217,16291 13217,16303 13217,16316 13227,16326 13239,16326 13251,16326 13261,16316 13261,16303 L 13261,16303 Z"/>
     </g>
    </g>
   </g>
   <g class="com.sun.star.drawing.CustomShape">
    <g id="id8">
     <rect class="BoundingBox" stroke="none" fill="none" x="7686" y="13085" width="830" height="531"/>
     <path fill="none" stroke="rgb(0,0,0)" stroke-width="28" stroke-linejoin="round" d="M 8501,13350 C 8501,13394 8482,13438 8447,13476 8412,13514 8362,13545 8301,13567 8240,13589 8171,13601 8101,13601 8030,13601 7961,13589 7900,13567 7839,13545 7789,13514 7754,13476 7719,13438 7700,13394 7700,13350 7700,13307 7719,13263 7754,13225 7789,13187 7839,13156 7900,13134 7961,13112 8030,13100 8101,13100 8171,13100 8240,13112 8301,13134 8362,13156 8412,13187 8447,13225 8482,13263 8501,13307 8501,13350 Z"/>
    </g>
   </g>
   <g class="com.sun.star.drawing.CustomShape">
    <g id="id9">
     <rect class="BoundingBox" stroke="none" fill="none" x="7687" y="13585" width="830" height="531"/>
     <path fill="none" stroke="rgb(0,0,0)" stroke-width="28" stroke-linejoin="round" d="M 8502,13850 C 8502,13894 8483,13938 8448,13976 8413,14014 8363,14045 8302,14067 8241,14089 8172,14101 8102,14101 8031,14101 7962,14089 7901,14067 7840,14045 7790,14014 7755,13976 7720,13938 7701,13894 7701,13850 7701,13807 7720,13763 7755,13725 7790,13687 7840,13656 7901,13634 7962,13612 8031,13600 8102,13600 8172,13600 8241,13612 8302,13634 8363,13656 8413,13687 8448,13725 8483,13763 8502,13807 8502,13850 Z"/>
    </g>
   </g>
   <g class="com.sun.star.drawing.CustomShape">
    <g id="id10">
     <rect class="BoundingBox" stroke="none" fill="none" x="7688" y="14086" width="830" height="530"/>
     <path fill="none" stroke="rgb(0,0,0)" stroke-width="28" stroke-linejoin="round" d="M 8503,14351 C 8503,14394 8484,14438 8449,14476 8414,14514 8364,14545 8303,14567 8242,14589 8173,14601 8103,14601 8032,14601 7963,14589 7902,14567 7841,14545 7791,14514 7756,14476 7721,14438 7702,14394 7702,14351 7702,14307 7721,14263 7756,14225 7791,14187 7841,14156 7902,14134 7963,14112 8032,14100 8103,14100 8173,14100 8242,14112 8303,14134 8364,14156 8414,14187 8449,14225 8484,14263 8503,14307 8503,14351 Z"/>
    </g>
   </g>
   <g class="com.sun.star.drawing.CustomShape">
    <g id="id11">
     <rect class="BoundingBox" stroke="none" fill="none" x="7689" y="14585" width="830" height="531"/>
     <path fill="none" stroke="rgb(0,0,0)" stroke-width="28" stroke-linejoin="round" d="M 8504,14850 C 8504,14894 8485,14938 8450,14976 8415,15014 8365,15045 8304,15067 8243,15089 8174,15101 8104,15101 8033,15101 7964,15089 7903,15067 7842,15045 7792,15014 7757,14976 7722,14938 7703,14894 7703,14850 7703,14807 7722,14763 7757,14725 7792,14687 7842,14656 7903,14634 7964,14612 8033,14600 8104,14600 8174,14600 8243,14612 8304,14634 8365,14656 8415,14687 8450,14725 8485,14763 8504,14807 8504,14850 Z"/>
    </g>
   </g>
   <g class="com.sun.star.drawing.CustomShape">
    <g id="id12">
     <rect class="BoundingBox" stroke="none" fill="none" x="7690" y="15086" width="830" height="531"/>
     <path fill="none" stroke="rgb(0,0,0)" stroke-width="28" stroke-linejoin="round" d="M 8505,15351 C 8505,15395 8486,15439 8451,15477 8416,15515 8366,15546 8305,15568 8244,15590 8175,15602 8105,15602 8034,15602 7965,15590 7904,15568 7843,15546 7793,15515 7758,15477 7723,15439 7704,15395 7704,15351 7704,15308 7723,15264 7758,15226 7793,15188 7843,15157 7904,15135 7965,15113 8034,15101 8105,15101 8175,15101 8244,15113 8305,15135 8366,15157 8416,15188 8451,15226 8486,15264 8505,15308 8505,15351 Z"/>
    </g>
   </g>
   <g class="com.sun.star.drawing.CustomShape">
    <g id="id13">
     <rect class="BoundingBox" stroke="none" fill="none" x="8691" y="13088" width="831" height="530"/>
     <path fill="none" stroke="rgb(0,0,0)" stroke-width="28" stroke-linejoin="round" d="M 9506,13352 C 9506,13396 9487,13440 9452,13478 9417,13516 9367,13547 9306,13569 9245,13591 9176,13603 9106,13603 9035,13603 8966,13591 8905,13569 8844,13547 8794,13516 8759,13478 8724,13440 8705,13396 8705,13352 8705,13309 8724,13265 8759,13227 8794,13189 8844,13158 8905,13136 8966,13114 9035,13102 9106,13102 9176,13102 9245,13114 9306,13136 9367,13158 9417,13189 9452,13227 9487,13265 9506,13309 9506,13352 Z"/>
    </g>
   </g>
   <g class="com.sun.star.drawing.CustomShape">
    <g id="id14">
     <rect class="BoundingBox" stroke="none" fill="none" x="8692" y="14089" width="830" height="530"/>
     <path fill="none" stroke="rgb(0,0,0)" stroke-width="28" stroke-linejoin="round" d="M 9507,14354 C 9507,14397 9488,14441 9453,14479 9418,14517 9368,14548 9307,14570 9246,14592 9177,14604 9107,14604 9036,14604 8967,14592 8906,14570 8845,14548 8795,14517 8760,14479 8725,14441 8706,14397 8706,14354 8706,14310 8725,14266 8760,14228 8795,14190 8845,14159 8906,14137 8967,14115 9036,14103 9107,14103 9177,14103 9246,14115 9307,14137 9368,14159 9418,14190 9453,14228 9488,14266 9507,14310 9507,14354 Z"/>
    </g>
   </g>
   <g class="com.sun.star.drawing.CustomShape">
    <g id="id15">
     <rect class="BoundingBox" stroke="none" fill="none" x="9793" y="13088" width="830" height="531"/>
     <path fill="none" stroke="rgb(0,0,0)" stroke-width="28" stroke-linejoin="round" d="M 10608,13353 C 10608,13397 10589,13441 10554,13479 10519,13517 10469,13548 10408,13570 10347,13592 10278,13604 10208,13604 10137,13604 10068,13592 10007,13570 9946,13548 9896,13517 9861,13479 9826,13441 9807,13397 9807,13353 9807,13310 9826,13266 9861,13228 9896,13190 9946,13159 10007,13137 10068,13115 10137,13103 10208,13103 10278,13103 10347,13115 10408,13137 10469,13159 10519,13190 10554,13228 10589,13266 10608,13310 10608,13353 Z"/>
    </g>
   </g>
   <g class="com.sun.star.drawing.CustomShape">
    <g id="id16">
     <rect class="BoundingBox" stroke="none" fill="none" x="9794" y="13589" width="830" height="531"/>
     <path fill="none" stroke="rgb(0,0,0)" stroke-width="28" stroke-linejoin="round" d="M 10609,13854 C 10609,13898 10590,13942 10555,13980 10520,14018 10470,14049 10409,14071 10348,14093 10279,14105 10209,14105 10138,14105 10069,14093 10008,14071 9947,14049 9897,14018 9862,13980 9827,13942 9808,13898 9808,13854 9808,13811 9827,13767 9862,13729 9897,13691 9947,13660 10008,13638 10069,13616 10138,13604 10209,13604 10279,13604 10348,13616 10409,13638 10470,13660 10520,13691 10555,13729 10590,13767 10609,13811 10609,13854 Z"/>
    </g>
   </g>
   <g class="com.sun.star.drawing.CustomShape">
    <g id="id17">
     <rect class="BoundingBox" stroke="none" fill="none" x="10895" y="13091" width="830" height="530"/>
     <path fill="none" stroke="rgb(0,0,0)" stroke-width="28" stroke-linejoin="round" d="M 11710,13356 C 11710,13399 11691,13443 11656,13481 11621,13519 11571,13550 11510,13572 11449,13594 11380,13606 11310,13606 11239,13606 11170,13594 11109,13572 11048,13550 10998,13519 10963,13481 10928,13443 10909,13399 10909,13356 10909,13312 10928,13268 10963,13230 10998,13192 11048,13161 11109,13139 11170,13117 11239,13105 11310,13105 11380,13105 11449,13117 11510,13139 11571,13161 11621,13192 11656,13230 11691,13268 11710,13312 11710,13356 Z"/>
    </g>
   </g>
   <g class="com.sun.star.drawing.CustomShape">
    <g id="id18">
     <rect class="BoundingBox" stroke="none" fill="none" x="11896" y="13091" width="830" height="531"/>
     <path fill="none" stroke="rgb(0,0,0)" stroke-width="28" stroke-linejoin="round" d="M 12711,13356 C 12711,13400 12692,13444 12657,13482 12622,13520 12572,13551 12511,13573 12450,13595 12381,13607 12311,13607 12240,13607 12171,13595 12110,13573 12049,13551 11999,13520 11964,13482 11929,13444 11910,13400 11910,13356 11910,13313 11929,13269 11964,13231 11999,13193 12049,13162 12110,13140 12171,13118 12240,13106 12311,13106 12381,13106 12450,13118 12511,13140 12572,13162 12622,13193 12657,13231 12692,13269 12711,13313 12711,13356 Z"/>
    </g>
   </g>
   <g class="com.sun.star.drawing.ConnectorShape">
    <g id="id19">
     <rect class="BoundingBox" stroke="none" fill="none" x="7077" y="13336" width="638" height="661"/>
     <path fill="none" stroke="rgb(0,0,0)" stroke-width="28" stroke-linejoin="round" d="M 7700,13350 C 6929,13350 6940,13736 7454,13830"/>
     <path fill="rgb(0,0,0)" stroke="none" d="M 7701,13850 L 7445,13655 7414,13995 7701,13850 Z"/>
    </g>
   </g>
   <g class="com.sun.star.drawing.ConnectorShape">
    <g id="id20">
     <rect class="BoundingBox" stroke="none" fill="none" x="8440" y="13351" width="316" height="514"/>
     <path fill="none" stroke="rgb(0,0,0)" stroke-width="28" stroke-linejoin="round" d="M 8501,13850 C 8655,13850 8593,13697 8608,13560"/>
     <path fill="rgb(0,0,0)" stroke="none" d="M 8705,13352 L 8440,13535 8755,13670 8705,13352 Z"/>
    </g>
   </g>
   <g class="com.sun.star.drawing.ConnectorShape">
    <g id="id21">
     <rect class="BoundingBox" stroke="none" fill="none" x="9091" y="12480" width="1233" height="637"/>
     <path fill="none" stroke="rgb(0,0,0)" stroke-width="28" stroke-linejoin="round" d="M 9105,13102 C 9105,12331 9963,12342 10165,12863"/>
     <path fill="rgb(0,0,0)" stroke="none" d="M 10207,13103 L 10323,12803 9987,12868 10207,13103 Z"/>
    </g>
   </g>
   <g class="com.sun.star.drawing.ConnectorShape">
    <g id="id22">
     <rect class="BoundingBox" stroke="none" fill="none" x="9506" y="13339" width="316" height="516"/>
     <path fill="none" stroke="rgb(0,0,0)" stroke-width="28" stroke-linejoin="round" d="M 9807,13353 C 9582,13353 9672,13531 9645,13675"/>
     <path fill="rgb(0,0,0)" stroke="none" d="M 9506,13853 L 9804,13731 9526,13532 9506,13853 Z"/>
    </g>
   </g>
   <g class="com.sun.star.drawing.ConnectorShape">
    <g id="id23">
     <rect class="BoundingBox" stroke="none" fill="none" x="8455" y="13839" width="315" height="513"/>
     <path fill="none" stroke="rgb(0,0,0)" stroke-width="28" stroke-linejoin="round" d="M 8706,13853 C 8555,13853 8616,14007 8601,14143"/>
     <path fill="rgb(0,0,0)" stroke="none" d="M 8502,14350 L 8768,14169 8455,14031 8502,14350 Z"/>
    </g>
   </g>
   <g class="com.sun.star.drawing.ConnectorShape">
    <g id="id24">
     <rect class="BoundingBox" stroke="none" fill="none" x="7079" y="14336" width="638" height="661"/>
     <path fill="none" stroke="rgb(0,0,0)" stroke-width="28" stroke-linejoin="round" d="M 7702,14350 C 6931,14350 6942,14736 7456,14830"/>
     <path fill="rgb(0,0,0)" stroke="none" d="M 7703,14850 L 7447,14655 7416,14995 7703,14850 Z"/>
    </g>
   </g>
   <g class="com.sun.star.drawing.ConnectorShape">
    <g id="id25">
     <rect class="BoundingBox" stroke="none" fill="none" x="8441" y="14352" width="316" height="513"/>
     <path fill="none" stroke="rgb(0,0,0)" stroke-width="28" stroke-linejoin="round" d="M 8503,14850 C 8656,14850 8595,14697 8609,14561"/>
     <path fill="rgb(0,0,0)" stroke="none" d="M 8706,14353 L 8441,14536 8756,14671 8706,14353 Z"/>
    </g>
   </g>
   <g class="com.sun.star.drawing.ConnectorShape">
    <g id="id26">
     <rect class="BoundingBox" stroke="none" fill="none" x="9492" y="13853" width="317" height="515"/>
     <path fill="none" stroke="rgb(0,0,0)" stroke-width="28" stroke-linejoin="round" d="M 9506,14353 C 9734,14353 9643,14176 9670,14032"/>
     <path fill="rgb(0,0,0)" stroke="none" d="M 9808,13854 L 9511,13978 9790,14175 9808,13854 Z"/>
    </g>
   </g>
   <g class="com.sun.star.drawing.ConnectorShape">
    <g id="id27">
     <rect class="BoundingBox" stroke="none" fill="none" x="10594" y="13354" width="316" height="515"/>
     <path fill="none" stroke="rgb(0,0,0)" stroke-width="28" stroke-linejoin="round" d="M 10608,13854 C 10834,13854 10744,13677 10770,13533"/>
     <path fill="rgb(0,0,0)" stroke="none" d="M 10909,13355 L 10612,13478 10890,13676 10909,13355 Z"/>
    </g>
   </g>
   <g class="com.sun.star.drawing.ConnectorShape">
    <g id="id28">
     <rect class="BoundingBox" stroke="none" fill="none" x="11295" y="12482" width="1137" height="638"/>
     <path fill="none" stroke="rgb(0,0,0)" stroke-width="28" stroke-linejoin="round" d="M 11309,13105 C 11309,12334 12087,12345 12271,12865"/>
     <path fill="rgb(0,0,0)" stroke="none" d="M 12310,13106 L 12430,12807 12094,12868 12310,13106 Z"/>
    </g>
   </g>
   <g class="com.sun.star.drawing.ConnectorShape">
    <g id="id29">
     <rect class="BoundingBox" stroke="none" fill="none" x="11660" y="13342" width="316" height="516"/>
     <path fill="none" stroke="rgb(0,0,0)" stroke-width="28" stroke-linejoin="round" d="M 11910,13356 C 11762,13356 11822,13511 11807,13648"/>
     <path fill="rgb(0,0,0)" stroke="none" d="M 11710,13856 L 11975,13673 11661,13538 11710,13856 Z"/>
    </g>
   </g>
   <g class="com.sun.star.drawing.ConnectorShape">
    <g id="id30">
     <rect class="BoundingBox" stroke="none" fill="none" x="10611" y="13842" width="314" height="516"/>
     <path fill="none" stroke="rgb(0,0,0)" stroke-width="28" stroke-linejoin="round" d="M 10910,13856 C 10687,13856 10776,14034 10750,14178"/>
     <path fill="rgb(0,0,0)" stroke="none" d="M 10611,14356 L 10908,14233 10630,14035 10611,14356 Z"/>
    </g>
   </g>
   <g class="com.sun.star.drawing.ConnectorShape">
    <g id="id31">
     <rect class="BoundingBox" stroke="none" fill="none" x="9505" y="14342" width="321" height="512"/>
     <path fill="none" stroke="rgb(0,0,0)" stroke-width="28" stroke-linejoin="round" d="M 9811,14356 C 9583,14356 9675,14534 9647,14677"/>
     <path fill="rgb(0,0,0)" stroke="none" d="M 9505,14852 L 9805,14734 9530,14531 9505,14852 Z"/>
    </g>
   </g>
   <g class="com.sun.star.drawing.ConnectorShape">
    <g id="id32">
     <rect class="BoundingBox" stroke="none" fill="none" x="8504" y="15015" width="333" height="405"/>
     <path fill="none" stroke="rgb(0,0,0)" stroke-width="28" stroke-linejoin="round" d="M 8822,15029 C 8822,15244 8793,15223 8736,15277"/>
     <path fill="rgb(0,0,0)" stroke="none" d="M 8504,15351 L 8819,15418 8702,15097 8504,15351 Z"/>
    </g>
   </g>
   <g class="com.sun.star.drawing.CustomShape">
    <g id="id33">
     <rect class="BoundingBox" stroke="none" fill="none" x="7691" y="15587" width="830" height="531"/>
     <path fill="none" stroke="rgb(0,0,0)" stroke-width="28" stroke-linejoin="round" d="M 8506,15852 C 8506,15896 8487,15940 8452,15978 8417,16016 8367,16047 8306,16069 8245,16091 8176,16103 8106,16103 8035,16103 7966,16091 7905,16069 7844,16047 7794,16016 7759,15978 7724,15940 7705,15896 7705,15852 7705,15809 7724,15765 7759,15727 7794,15689 7844,15658 7905,15636 7966,15614 8035,15602 8106,15602 8176,15602 8245,15614 8306,15636 8367,15658 8417,15689 8452,15727 8487,15765 8506,15809 8506,15852 Z"/>
    </g>
   </g>
   <g class="com.sun.star.drawing.ConnectorShape">
    <g id="id34">
     <rect class="BoundingBox" stroke="none" fill="none" x="7069" y="15337" width="650" height="636"/>
     <path fill="none" stroke="rgb(0,0,0)" stroke-width="28" stroke-linejoin="round" d="M 7704,15351 C 6933,15351 6960,15682 7353,15806"/>
     <path fill="rgb(0,0,0)" stroke="none" d="M 7330,15970 L 7688,15868 7700,15862 7705,15853 7702,15841 7695,15833 7378,15635 7374,15633 7371,15632 7364,15633 7356,15636 7351,15641 7349,15648 7306,15950 7306,15957 7310,15964 7316,15968 7323,15971 7326,15971 7330,15970 Z"/>
    </g>
   </g>
   <g class="com.sun.star.drawing.CustomShape">
    <g id="id35">
     <rect class="BoundingBox" stroke="none" fill="none" x="8792" y="15088" width="830" height="531"/>
     <path fill="none" stroke="rgb(0,0,0)" stroke-width="28" stroke-linejoin="round" d="M 9607,15353 C 9607,15397 9588,15441 9553,15479 9518,15517 9468,15548 9407,15570 9346,15592 9277,15604 9207,15604 9136,15604 9067,15592 9006,15570 8945,15548 8895,15517 8860,15479 8825,15441 8806,15397 8806,15353 8806,15310 8825,15266 8860,15228 8895,15190 8945,15159 9006,15137 9067,15115 9136,15103 9207,15103 9277,15103 9346,15115 9407,15137 9468,15159 9518,15190 9553,15228 9588,15266 9607,15310 9607,15353 Z"/>
    </g>
   </g>
   <g class="com.sun.star.drawing.CustomShape">
    <g id="id36">
     <rect class="BoundingBox" stroke="none" fill="none" x="9793" y="14590" width="830" height="530"/>
     <path fill="none" stroke="rgb(0,0,0)" stroke-width="28" stroke-linejoin="round" d="M 10608,14855 C 10608,14898 10589,14942 10554,14980 10519,15018 10469,15049 10408,15071 10347,15093 10278,15105 10208,15105 10137,15105 10068,15093 10007,15071 9946,15049 9896,15018 9861,14980 9826,14942 9807,14898 9807,14855 9807,14811 9826,14767 9861,14729 9896,14691 9946,14660 10007,14638 10068,14616 10137,14604 10208,14604 10278,14604 10347,14616 10408,14638 10469,14660 10519,14691 10554,14729 10589,14767 10608,14811 10608,14855 Z"/>
    </g>
   </g>
   <g class="com.sun.star.drawing.CustomShape">
    <g id="id37">
     <rect class="BoundingBox" stroke="none" fill="none" x="10894" y="14089" width="830" height="531"/>
     <path fill="none" stroke="rgb(0,0,0)" stroke-width="28" stroke-linejoin="round" d="M 11709,14354 C 11709,14398 11690,14442 11655,14480 11620,14518 11570,14549 11509,14571 11448,14593 11379,14605 11309,14605 11238,14605 11169,14593 11108,14571 11047,14549 10997,14518 10962,14480 10927,14442 10908,14398 10908,14354 10908,14311 10927,14267 10962,14229 10997,14191 11047,14160 11108,14138 11169,14116 11238,14104 11309,14104 11379,14104 11448,14116 11509,14138 11570,14160 11620,14191 11655,14229 11690,14267 11709,14311 11709,14354 Z"/>
    </g>
   </g>
   <g class="com.sun.star.drawing.CustomShape">
    <g id="id38">
     <rect class="BoundingBox" stroke="none" fill="none" x="11895" y="13591" width="831" height="530"/>
     <path fill="none" stroke="rgb(0,0,0)" stroke-width="28" stroke-linejoin="round" d="M 12710,13856 C 12710,13899 12691,13943 12656,13981 12621,14019 12571,14050 12510,14072 12449,14094 12380,14106 12310,14106 12239,14106 12170,14094 12109,14072 12048,14050 11998,14019 11963,13981 11928,13943 11909,13899 11909,13856 11909,13812 11928,13768 11963,13730 11998,13692 12048,13661 12109,13639 12170,13617 12239,13605 12310,13605 12380,13605 12449,13617 12510,13639 12571,13661 12621,13692 12656,13730 12691,13768 12710,13812 12710,13856 Z"/>
    </g>
   </g>
   <g class="com.sun.star.drawing.ConnectorShape">
    <g id="id39">
     <rect class="BoundingBox" stroke="none" fill="none" x="8491" y="15529" width="483" height="338"/>
     <path fill="none" stroke="rgb(0,0,0)" stroke-width="28" stroke-linejoin="round" d="M 8505,15852 C 8784,15852 8768,15820 8837,15756"/>
     <path fill="rgb(0,0,0)" stroke="none" d="M 8923,15530 L 8658,15713 8972,15848 8923,15530 Z"/>
    </g>
   </g>
   <g class="com.sun.star.drawing.ConnectorShape">
    <g id="id40">
     <rect class="BoundingBox" stroke="none" fill="none" x="9592" y="15030" width="404" height="338"/>
     <path fill="none" stroke="rgb(0,0,0)" stroke-width="28" stroke-linejoin="round" d="M 9606,15353 C 9818,15353 9799,15324 9852,15264"/>
     <path fill="rgb(0,0,0)" stroke="none" d="M 9924,15031 L 9672,15232 9995,15345 9924,15031 Z"/>
    </g>
   </g>
   <g class="com.sun.star.drawing.ConnectorShape">
    <g id="id41">
     <rect class="BoundingBox" stroke="none" fill="none" x="10593" y="14530" width="484" height="339"/>
     <path fill="none" stroke="rgb(0,0,0)" stroke-width="28" stroke-linejoin="round" d="M 10607,14854 C 10886,14854 10870,14822 10939,14758"/>
     <path fill="rgb(0,0,0)" stroke="none" d="M 11025,14531 L 10761,14715 11075,14849 11025,14531 Z"/>
    </g>
   </g>
   <g class="com.sun.star.drawing.ConnectorShape">
    <g id="id42">
     <rect class="BoundingBox" stroke="none" fill="none" x="11694" y="14031" width="404" height="338"/>
     <path fill="none" stroke="rgb(0,0,0)" stroke-width="28" stroke-linejoin="round" d="M 11708,14354 C 11920,14354 11901,14325 11954,14265"/>
     <path fill="rgb(0,0,0)" stroke="none" d="M 12026,14032 L 11774,14233 12097,14346 12026,14032 Z"/>
    </g>
   </g>
   <g class="com.sun.star.drawing.ConnectorShape">
    <g id="id43">
     <rect class="BoundingBox" stroke="none" fill="none" x="12695" y="13327" width="623" height="543"/>
     <path fill="none" stroke="rgb(0,0,0)" stroke-width="28" stroke-linejoin="round" d="M 12709,13855 L 13128,13492"/>
     <path fill="rgb(0,0,0)" stroke="none" d="M 13317,13328 L 12999,13377 13223,13636 13317,13328 Z"/>
    </g>
   </g>
  </g>
 </g>
</svg>